<?xml version="1.0" standalone="no"?>
<!DOCTYPE svg PUBLIC "-//W3C//DTD SVG 1.1//EN" "http://www.w3.org/Graphics/SVG/1.1/DTD/svg11.dtd" >
<svg>
<metadata>
Created by FontForge 20090914 at Fri Feb 24 15:22:27 2012
 By root
Typeface &#194;&#169; (On The Fluid). &#60;2011&#62;. All Rights Reserved
</metadata>
<defs>
<font id="FluidSpiral" horiz-adv-x="1097" >
  <font-face 
    font-family="Fluid Spiral"
    font-weight="400"
    font-stretch="normal"
    units-per-em="2048"
    panose-1="2 0 5 0 0 0 0 0 0 0"
    ascent="1638"
    descent="-410"
    x-height="1017"
    cap-height="1024"
    bbox="0 0 1242 1845"
    underline-thickness="150"
    underline-position="-142"
    unicode-range="U+0020-U+F002"
  />
<missing-glyph horiz-adv-x="0" 
 />
    <glyph glyph-name=".notdef" horiz-adv-x="0" 
 />
    <glyph glyph-name="nonmarkingreturn" horiz-adv-x="508" 
 />
    <glyph glyph-name="space" unicode=" " horiz-adv-x="508" 
 />
    <glyph glyph-name="space" unicode="&#xa0;" horiz-adv-x="508" 
 />
    <glyph glyph-name="at" unicode="@" horiz-adv-x="1303" 
d="M705 1845h6q21 0 49 -3h1v0l-220 -142l-245 -159l-147 -94l-1 -1v1q2 5 5 6l281 214l220 166q13 10 14 10q17 2 37 2zM523 1813v0l-197 -170l-260 -226l-4 -2v0q9 30 32 77q22 45 59 96q18 24 49 58q40 39 56 50q34 27 65 45q41 24 83 41q34 13 60 20q23 6 56 11h1z
M740 1803q8 0 55 -9q49 -12 88 -27q57 -23 112 -58q29 -18 65 -47q24 -23 38 -40q34 -41 50 -66q22 -35 38 -69q10 -20 20 -49q9 -26 16 -69q3 -12 5 -32q-3 -1 -106 -19l-9 30q-25 72 -50 111q-52 79 -126 79h-4q-111 0 -143 -115q-17 -58 -17 -158v-3l184 28v-1l-320 -56
l-69 -12v1q0 9 1 40q0 182 -57 240q-13 14 -23 21l-16 8v0l236 240zM701 1786l8 -1v0l-168 -171l-104 -105v0q-25 8 -54 8q-96 0 -159 -113q-22 -36 -41 -102q-8 -29 -16 -68l-68 -69v0q0 50 7 134q7 57 16 92q5 17 7 25l289 187l262 169zM623 1602h1l110 41v0
q-12 12 -20 15q-14 6 -24 6h-5q-23 0 -44 -20q-18 -20 -18 -42zM629 1601v-10v-1l109 -38q19 20 19 47q0 25 -16 43l-112 -41v0zM624 1588l-1 -1q-1 -40 -25 -52q-7 -2 -8 -2v0v0h45h32q38 0 47 5q8 3 18 12zM587 1493l1 -34v-6v0q0 8 8 18q6 6 21 6q5 0 13 6q8 9 8 19v2
q0 16 -17 23q-4 1 -8 1q-16 0 -23 -15q-3 -5 -3 -20zM634 1526h-1v0q7 0 11 -12q1 -14 2 -21q3 -7 11 -13l38 16v5v2q0 15 -16 22q-5 2 -15 2zM666 1480q5 -4 12 -4q15 0 23 15q1 3 1 4zM389 1446v0l-2 -2v1zM384 1441v0l-183 -194l-15 -16q-4 -31 -7 -71q0 -7 -1 -7l-48 -8
v26l1 13l202 205zM1186 1315q1 0 4 -30v-10l-47 -38h-1q-1 12 -1 27v20q0 13 -1 23q1 0 46 8zM960 1290v0v0v0v0zM958 1290h1v0h-1v0zM956 1290h1v-1h-1v1zM1212 1286v0l3 -34l-181 -141v0l144 116l-3 29l37 30v0zM1233 1253h1v0q1 -24 2 -115q5 -56 5 -73v-3q0 -15 -4 -48
l-1 -78v-10v-3v-1q0 -10 5 -70l1 -11v-6q0 -31 -15 -111l-10 -76q-6 -31 -7 -34l-288 -56q-8 15 -23 37q-9 12 -25 28q-19 18 -32 26q-21 14 -51 27q-44 15 -83 15h-8q-65 0 -135 -39q-21 -13 -46 -35q-23 -22 -30 -31q-17 -22 -25 -38q-10 -17 -18 -40q-9 -29 -9 -42l-1 -3
q-11 -3 -185 -37l-3 5v1l197 163l252 211l60 50h1l-97 -87v0q35 -6 58 -6q62 0 80 32q5 11 5 24v1q0 24 -11 66l110 92q12 -3 24 -3h43q90 0 125 21q11 4 28 20q5 7 8 12q11 14 17 35q6 18 8 41q2 25 2 64q0 6 -1 14l-105 -80v0zM752 1239v0v0q0 -43 9 -106q6 -34 15 -61
q11 -33 24 -54q7 -12 20 -26l10 -11v0l-54 -44q-14 32 -36 63q-10 15 -31 36q-36 34 -71 34q-59 0 -109 -89q-13 -24 -24 -53q-22 -63 -22 -107v-5q0 -30 29 -44q18 -9 51 -9v0l-66 -54q-229 -187 -233 -190q-1 -1 -71 -58q-5 -5 -7 -5q-25 47 -45 101q-19 52 -19 81
q-8 97 -14 119q-19 98 -19 113q-14 91 -14 112v2q0 17 11 117l2 22l81 15v0v-11v-8q0 -104 54 -138q9 -6 27 -13q31 -9 41 -9q21 -3 92 -3h7q46 0 72 14q11 5 27 20q16 17 23 31q9 16 18 41q5 14 11 42q4 22 9 68l1 25v0l-275 -41v1v0l333 57zM275 1156v0v0v0v0zM273 1156h1
v-1h-1v1zM271 1156h1v-1h-1v1zM1032 1140h1v-1h-1v1zM1029 1137h1v0h-1v0zM1027 1136h1v-1h-1v1zM1026 1134v0v0h-1h1zM1024 1133h1l-1 -1v0v1zM1023 1132v0l-1 -1v0zM1021 1130v0v-1h-1zM1020 1129v0l-1 -1v0zM1018 1128h1l-2 -1v0zM1017 1127v0l-81 -68l-81 -67
q10 -8 15 -9v-1l-102 -80l-5 13v0l-116 -90v0l184 150zM1034 1110v0h-1v0h1zM1032 1109v0v0v0v0zM1031 1108v0h-1v0h1zM1051 1101v0v0v0v0zM873 980l13 -7v0l-103 -87h-1l-5 18v1zM717 858h1v0h-1v0zM759 858v0v-1h-1zM717 857v0l-1 -1v0zM715 856v0v-1h-1zM714 855v0
q-1 -2 -109 -90l-6 -5l29 6q8 -1 8 -2l-225 -188l-191 -159l1 -1q-3 -1 -7 -4l-30 -25v0l-21 38l224 174l215 169zM646 824v0v-1h-1zM644 823h1v0h-1v0zM563 756l14 -1h2v0q-215 -169 -230 -180l-140 -109v0v1l192 157q161 132 162 132zM1180 595v0v0q-2 -12 -7 -30
l-307 -246l-198 -158l-39 -32h-1q-27 0 -72 5q-35 8 -61 18q-38 15 -70 34q-25 15 -54 37q-48 39 -86 88q-31 39 -52 76l-12 20q0 1 16 3l188 38l1 -1l-1 -1q0 -70 49 -95q36 -21 125 -21h2l83 1h88q96 0 130 27q36 29 36 89v11q0 43 -15 76v0l-357 -62l-103 -17v0l315 61
l312 62zM1230 594v0q-11 -37 -21 -61q-9 -21 -25 -48q-20 -31 -87 -116l-59 -71q-7 -10 -41 -42q-36 -33 -57 -47q-22 -16 -49 -29q-18 -9 -34 -14q-28 -10 -68 -10h-15q-13 0 -62 2l-26 1v0l217 174l284 227zM462 455h1v-1h-1v1zM461 455v0v-1v0v1zM564 98h3q20 0 31 -20
q4 -10 4 -20v-3q0 -27 -22 -37q-1 0 -1 -1l24 -5v-1l-3 -8q-13 3 -36 11q-19 0 -30 16q-7 11 -7 25q0 30 25 40q6 3 12 3zM905 98h2q17 -1 18 -4l-2 -8v0q-9 3 -17 3q-22 0 -30 -20q-2 -8 -2 -14q0 -24 21 -31q5 -1 11 -1q8 0 17 3q1 -4 2 -9q-8 -3 -20 -3h-3q-26 0 -36 24
q-3 8 -3 17q0 29 27 40q8 3 15 3zM968 98h1q24 0 34 -24q2 -8 2 -16v-3q0 -27 -22 -38q-8 -3 -14 -3h-3q-23 0 -33 24q-3 8 -3 16v2q0 28 25 39q6 3 13 3zM209 97q1 0 4 -18q7 -29 12 -52v0q5 22 17 66q0 4 1 4h10q1 0 8 -29q6 -24 8 -40h1q3 18 17 68v1h10l1 -1l-23 -81v0
h-11q-1 0 -3 12q-13 49 -13 57v0q-5 -22 -14 -55q-4 -14 -5 -14h-10q-1 0 -9 33l-12 48v1h11zM312 97l4 -18q7 -29 12 -52v0q4 22 16 66q1 4 2 4h10q1 0 7 -29q7 -24 9 -40h1q3 18 17 68v1h10l1 -1l-23 -81h-1h-10q-1 0 -4 12q-12 49 -12 57v0q-5 -22 -15 -55q-3 -14 -4 -14
h-10q-1 0 -9 33l-12 48v1h11zM414 97q1 0 5 -18q7 -29 12 -52v0q4 22 16 66q1 4 2 4h10q1 0 7 -29q7 -24 9 -40v0q4 18 17 68l1 1h10v-1l-23 -81v0h-10q-1 0 -4 12q-12 49 -12 57h-1q-4 -22 -14 -55q-3 -14 -4 -14h-10q-1 0 -9 33l-12 48v1h10zM617 97h9l1 -1v-39
q7 10 31 40h13v-1l-29 -34l32 -47v0h-12q-1 0 -27 39l-1 1l-7 -9v-31h-1h-9h-1v81zM682 97h10v-1v-81v0h-10v0v81v1zM711 97h10v-1v-72h35l1 -1v-8h-1h-45v0v81v1zM802 97q1 0 15 -44l14 -38h-1h-10q-1 0 -4 11l-6 14h-28q-1 0 -9 -25h-10h-1l28 81v1h12zM1036 97q1 0 6 -17
q11 -29 16 -50h1q7 24 23 67h13l1 -1l5 -81h-1h-9h-1q-3 59 -3 70v1v0q-9 -27 -25 -71v0h-8q-1 2 -12 33q-6 17 -11 38v0q0 -14 -4 -71v0h-9h-1l6 81v1h13zM539 55q0 -20 14 -30q6 -3 12 -3q19 0 25 24q1 5 1 11q0 19 -14 29q-6 3 -12 3q-18 0 -25 -21q-1 -7 -1 -13zM942 57
v-3q0 -20 15 -29q5 -3 11 -3q18 0 25 22l1 12q0 20 -14 30q-6 3 -12 3q-18 0 -25 -21q-1 -6 -1 -11zM796 87q-3 -12 -12 -38h24q-9 26 -12 38v0zM511 29h2q4 0 6 -6v-3q-2 -6 -7 -6h-1q-5 0 -7 6v2q2 7 7 7zM846 29h2q5 0 6 -6v-3q-1 -6 -6 -6h-2q-5 0 -6 6v2q1 7 6 7z" />
    <glyph glyph-name="A" unicode="A" 
d="M584 1019q100 0 175 -44h-5q-75 31 -151 31q-172 0 -299 -140q-94 -115 -94 -254v-4q0 -193 170 -324h-4q-190 129 -190 339q0 193 166 321q105 75 232 75zM630 839q192 0 321 -166q74 -104 74 -231q0 -102 -46 -182v4q33 78 33 156q0 215 -201 345q-96 50 -195 50
q-194 0 -325 -170v4q130 190 339 190zM44 745v-4q-31 -74 -31 -151q0 -202 186 -334q102 -59 205 -59h9q190 0 321 170v-4q-128 -190 -338 -190q-215 0 -346 201q-50 94 -50 199q0 98 44 172zM651 737h5v-3h-5v3zM658 732h4q186 -127 186 -336v-5q0 -202 -186 -332
q-100 -59 -205 -59h-9q-98 0 -173 44h5q73 -31 151 -31q207 0 336 188q59 106 59 206q0 191 -168 325z" />
    <glyph glyph-name="B" unicode="B" horiz-adv-x="1100" 
d="M588 1025q101 0 176 -44h-5q-76 31 -152 31q-173 0 -301 -141q-95 -115 -95 -255v-4q0 -110 64 -216h2v2q-53 97 -53 196q0 194 168 326q112 75 233 75q178 0 306 -146v-2q-127 126 -288 126q-224 0 -353 -207q-48 -96 -48 -192q0 -123 77 -233l64 -55h-5
q-191 130 -191 341q0 194 167 324q106 74 234 74zM180 922h3l-7 -7h-2zM167 911h2q-118 -128 -118 -279v-16q0 -147 116 -273q127 -116 280 -116q123 0 237 79l55 64v-5q-129 -191 -341 -191q-216 0 -347 202q-51 95 -51 201q0 99 44 173v-4q-31 -74 -31 -152
q0 -204 187 -337q103 -59 207 -59h9q108 0 213 64v2h-2q-93 -53 -191 -53h-16q-202 0 -334 192q-57 103 -57 207q0 174 138 301zM634 845q193 0 323 -167q75 -105 75 -234q0 -102 -46 -182v4q33 78 33 156q0 217 -203 348q-97 51 -195 51q-97 0 -196 -51v-2h4q79 40 165 40
h18q185 0 314 -165q75 -106 75 -234v-4q0 -175 -143 -302h-2q125 130 125 291q0 197 -176 330q-112 68 -222 68q-116 0 -224 -70q-37 -34 -66 -73v5q131 191 341 191zM414 764v-3h4v3h-4zM656 742h4v-3h-4v3zM662 737h5q187 -128 187 -339v-4q0 -203 -187 -335
q-101 -59 -207 -59h-9q-99 0 -174 44h5q73 -31 151 -31q209 0 339 189q60 107 60 207q0 104 -60 212h-2v-3q46 -88 46 -180v-16q0 -192 -176 -323q-104 -66 -207 -66h-30q-166 0 -295 147v3q126 -130 297 -130q191 0 321 167q75 112 75 229q0 121 -75 231z" />
    <glyph glyph-name="C" unicode="C" horiz-adv-x="1017" 
d="M492 1025h31q163 0 290 -143v-3q-125 126 -292 126q-193 0 -323 -170q-73 -107 -73 -230q0 -38 14 -99h2v2l-7 70q0 202 183 334q107 64 215 64q209 0 339 -187q29 -45 39 -85l-35 66q-133 180 -332 180h-4q-194 0 -324 -169q-72 -107 -72 -231q0 -90 46 -159v-2
q-81 109 -81 238q0 210 193 343q100 55 191 55zM541 928q226 0 356 -213q44 -93 44 -179v-15h-4q0 158 -143 290q-120 90 -255 90q-177 0 -306 -147q-59 -81 -59 -101l2 -2q-9 0 -24 -73v-2h-5q8 80 64 176q135 176 330 176zM523 862q210 0 341 -189q59 -99 59 -211
q0 -102 -46 -183v5q33 77 33 156q0 209 -191 341q-101 57 -207 57q-96 0 -195 -51v-2h4q79 39 165 39h17q185 0 315 -164q75 -106 75 -233q0 -182 -143 -306h-2q125 129 125 290q0 197 -176 330q-112 68 -222 68q-65 -4 -110 -15v-3h4q38 9 80 9h11q211 0 342 -202
q51 -100 51 -196q0 -191 -163 -321q-83 -55 -107 -55l57 31q187 131 187 334v7q0 204 -187 334q-91 49 -117 49h-2v-3q145 -47 218 -158q66 -107 66 -207v-30q0 -160 -139 -288q-116 -95 -244 -95h-13v4q126 0 255 115q114 126 114 268v26q0 165 -149 299l-64 40h-2v-2
q104 -57 165 -214q17 -59 17 -120v-5q0 -203 -187 -334q-100 -59 -206 -59h-9q-99 0 -174 44h5q73 -31 151 -31q208 0 339 189q59 106 59 207q0 103 -59 211h-2v-3q46 -88 46 -180v-15q0 -193 -176 -323q-104 -66 -207 -66h-30q-166 0 -295 147v2q126 -130 297 -130
q191 0 321 167q75 112 75 229q0 118 -73 229q-78 78 -117 81q-38 15 -65 15h-14q-154 0 -233 -118l-6 -7v5q66 117 231 175q39 11 107 16zM358 791v-2h5v2h-5zM506 785v-2h4v2h-4zM514 783v-2h5v2h-5zM306 781v-3h4v3h-4zM141 501v-4h2v4h-2zM191 387h2v-4h-2v4z" />
    <glyph glyph-name="D" unicode="D" 
d="M511 1023h12v-4h-4q-132 0 -261 -123q-99 -122 -99 -258q0 -170 140 -295l34 -25h2q-161 127 -161 305v21q0 176 163 303q104 68 199 68h36q86 0 163 -45h-4q-72 32 -144 32h-21q-147 0 -269 -123q-102 -116 -102 -258q0 -193 169 -318q75 -45 140 -45l64 7v-4
q-54 -11 -98 -11q-193 0 -320 176q-59 98 -59 197v25q0 163 146 288q89 62 117 62l-64 -34q-176 -127 -176 -322q0 -207 191 -333q75 -37 123 -44h4v2q-51 0 -161 78q-135 125 -135 280v30q0 153 133 277q112 91 242 91zM597 989h13q65 0 134 -25v2q71 -31 144 -100l10 -14
v-3q-124 121 -279 121q-191 0 -318 -169q-66 -106 -66 -214q0 -32 13 -98h2v5l-4 48v30q0 178 171 307q101 62 204 62h19q184 0 313 -176q38 -71 38 -85l-40 72q-127 165 -316 165q-191 0 -317 -169q-66 -106 -66 -214q0 -58 21 -115q22 -33 24 -42q-77 102 -77 216v26
q0 173 161 300q104 70 216 70zM178 900h2q-121 -120 -121 -281q0 -200 185 -327q99 -55 199 -55q58 0 131 24l-2 2v4h4v-4h4l-2 2v2q58 10 117 72l29 36v-2q-122 -187 -330 -187q-209 0 -335 195q-48 96 -48 189q0 87 42 178h4v-2q-34 -80 -34 -155q0 -144 106 -263
q121 -118 265 -118h25q104 0 202 65q-99 -55 -197 -55q-179 0 -303 149q-81 110 -81 216v36q0 156 138 279zM625 894h23q184 0 312 -172q61 -101 61 -197v-14h-4v2q0 116 -104 239q-124 116 -265 116h-25q-156 0 -282 -137q-57 -67 -78 -165h-5v2q7 82 83 188
q128 138 284 138zM612 830h19q170 0 295 -150q78 -106 78 -227v-12q0 -93 -42 -166v5q29 69 29 144v4q0 186 -163 311q-106 70 -218 70q-94 0 -193 -51v-2h2q83 40 170 40q191 0 313 -158q72 -104 72 -216v-22q0 -162 -142 -286h-2q125 123 125 282q0 211 -197 337
q-93 47 -180 47h-12q-42 0 -96 -13v-2h4q38 8 79 8q189 0 313 -163q70 -101 70 -222q0 -187 -161 -312q-85 -53 -106 -53v5q64 14 153 108q89 112 89 235v19q0 155 -125 275q-75 66 -161 87h-2v-2q133 -44 201 -148q68 -103 68 -219q0 -172 -142 -296q-103 -87 -261 -87h-2
v4h2q145 0 263 110q114 121 114 272q0 194 -173 321l-38 22h-3v-2q109 -63 159 -197q21 -58 21 -119v-21q0 -170 -152 -295q-104 -76 -220 -76h-24q-86 0 -165 45h4q72 -32 147 -32h12q192 0 320 180q57 101 57 203q0 98 -57 201h-2v-2q44 -85 44 -167v-28q0 -167 -154 -296
q-109 -74 -229 -74q-176 0 -299 144v2q124 -125 274 -125h21q169 0 298 155q75 112 75 228l-7 70h-2v-2l2 -34v-21q0 -201 -195 -328q-96 -49 -188 -49q-182 0 -307 155q-44 61 -55 106l36 -66q126 -170 320 -170q203 0 326 185q55 96 55 180l-2 12l2 24q0 94 -70 171
q-79 79 -170 79l-67 -7v5h-5l3 -3v-2q-98 -25 -140 -84l-24 -28v2q65 117 229 172q53 10 89 10zM462 765v-2h6v2h-6zM608 756v-2h4v2h-4zM614 754v-2h7v2h-7zM290 644h2v-4h-2v4zM256 561h5v-6h-5v6zM771 534v-7h2v7h-2zM0 525h4v-4q0 -123 110 -248q124 -110 261 -110h21
q178 0 307 167q52 91 57 144h5q-8 -88 -79 -190q-127 -146 -290 -146h-25q-180 0 -310 171q-61 102 -61 204v12zM250 487v-6h2v6h-2zM299 375h2v-4h-2v4zM434 265v-2h7v2h-7z" />
    <glyph glyph-name="E" unicode="E" 
d="M504 1021h11q80 0 129 -81l14 -35l28 -10h1q38 22 76 22q81 0 131 -74q21 -37 21 -80q0 -37 -21 -76q8 -31 20 -31q58 -20 89 -73q18 -40 18 -72q0 -93 -96 -141q-23 -3 -23 -16q-4 -4 -8 -19q21 -37 21 -81q0 -95 -104 -142q-32 -6 -48 -6q-37 0 -79 21q-28 -10 -28 -15
q-5 -30 -43 -72q-51 -40 -102 -40q-100 0 -146 106q0 14 -28 20l-2 1h-1q-37 -21 -81 -21q-91 0 -139 97q-8 26 -10 53q0 41 22 78v1q-8 33 -25 33q-26 5 -70 48q-31 46 -31 90v11q0 89 99 137q20 0 25 28l2 5q-22 41 -22 78q0 99 106 145l46 7q33 0 81 -22q30 9 30 25
q21 56 72 84q33 17 65 17zM330 866q-31 24 -66 24h-16q-66 0 -106 -71q-10 -19 -13 -54q0 -39 26 -76q-20 -51 -24 -53q-55 -14 -75 -41q-31 -36 -31 -83v-6q0 -69 74 -111q36 -8 36 -15l20 -48q-26 -34 -26 -74q0 -75 74 -116q30 -11 53 -11q39 0 74 24h2q51 -18 53 -23
q0 -31 43 -77q41 -29 74 -29h12q80 0 115 86q5 27 17 27l41 16h2q36 -24 76 -24q80 0 119 85q6 26 6 42q0 37 -24 74v2q19 53 24 53q31 0 78 44q27 38 27 76v12q0 66 -73 107q-38 10 -38 17l-18 46v2q24 35 24 74q0 78 -79 117q-21 8 -43 8h-13q-33 0 -68 -24l-51 21
q-13 57 -46 81q-38 28 -75 28h-6q-87 0 -121 -92q0 -21 -28 -25q-1 -3 -30 -13zM502 933h12q27 0 49 -28l-1 -1q-16 3 -45 3h-15q-28 0 -44 -3v3q22 26 44 26zM259 829l9 -1v-2q-38 -32 -73 -73h-2l-1 10q0 47 49 65zM762 829q46 0 64 -48l2 -18v-6l-4 -4q-30 39 -72 73v2z
M511 712l24 -2v-1q-9 -10 -26 -10q-16 0 -23 10v1zM441 699q3 -12 38 -37q-13 -11 -13 -28q2 -20 16 -34v-4l-14 -5q0 40 -37 48l-6 2l-2 2v1l7 28l-4 20q10 7 15 7zM582 699l11 -7l-2 -16v-5q0 -13 5 -28q-20 0 -39 -27l-5 -25l-15 5v4q16 16 16 34q0 10 -11 32q15 5 40 33
zM387 669l1 -2v-1q-11 -33 -33 -33l-3 3zM631 669h2q22 -17 34 -35v-1q-36 7 -36 36zM509 656q23 -3 23 -23q-5 -22 -21 -22q-21 0 -24 25q7 20 22 20zM421 620h4q19 -5 19 -19v-6q0 -14 -18 -18h-6q-14 0 -19 19v4q4 20 20 20zM595 620h1q22 -3 22 -19v-6q0 -14 -18 -18h-7
q-14 0 -18 19v4q4 20 20 20zM378 598q9 -45 52 -45l-5 -14h-4q-13 13 -33 16q-16 0 -31 -13q-9 19 -35 40l7 13l20 -4zM643 598l28 -7l21 4l5 -15q-23 -13 -31 -36q-27 11 -33 11q-16 0 -35 -16l-8 14q35 0 48 30q1 15 5 15zM114 563h3q-3 -16 -3 -44v-15q0 -29 3 -45l-1 -1
h-2q-26 24 -26 49v12q0 22 26 44zM904 563h1q28 -21 28 -52t-28 -52h-1l3 53zM511 557h3q19 0 36 -23q5 -9 5 -17v-11q-10 -40 -40 -40h-11q-30 0 -40 41v4q6 46 47 46zM311 535h1q10 -6 10 -24q0 -15 -10 -25h-1l-2 28zM707 535h2l1 -11v-22l-1 -16h-4q-8 16 -8 26
q0 13 10 23zM387 534q20 0 23 -25q-7 -20 -22 -20q-23 3 -23 23q6 22 22 22zM489 512q2 -21 22 -21h1q14 0 18 18v2q-2 21 -19 21h-2q-20 -4 -20 -20zM634 534q20 -8 20 -20v-5q0 -17 -23 -20q-20 4 -20 20v5q0 16 23 20zM421 484h4l5 -15q-50 -7 -50 -43l-2 -1l-26 5h-7
l-16 -2l-7 13q22 16 35 38q17 -11 31 -11q16 0 33 16zM598 484q16 -16 36 -16q14 0 28 11h4q0 -11 31 -40l-5 -11l-16 2h-9l-26 -5q-9 44 -51 44zM421 446h4q19 -4 19 -18v-7q0 -13 -18 -18h-6q-16 0 -19 22v1q4 20 20 20zM595 446h3q20 -4 20 -18v-7q0 -13 -18 -18h-7
q-14 0 -18 20v3q4 20 20 20zM468 431l14 -8q-13 -13 -16 -33q0 -8 11 -35q-14 -2 -38 -31h-1l-12 5l4 20l-7 31q24 0 40 26zM552 431q0 -36 34 -49q10 0 10 -4l-5 -24v-9l2 -16l-15 -5q-21 31 -36 31v4q11 14 11 31q0 16 -16 33zM507 410h5q18 0 20 -23q-5 -20 -20 -20h-5
q-15 0 -20 23q6 20 20 20zM352 390q36 -8 36 -36h-1q-18 11 -35 34v2zM667 390v-2q0 -5 -34 -34h-2q10 36 36 36zM512 324l23 -8v-4l-16 -1h-22l-11 1v2q9 10 26 10zM193 269h2q33 -40 73 -72l-4 -4h-6q-54 0 -66 60v8zM823 269h1l4 -3v-7q0 -50 -55 -66h-18l-3 4v1
q41 29 71 71zM458 117l53 -3l51 3v-1q-21 -28 -53 -28q-29 0 -51 28v1z" />
    <glyph glyph-name="F" unicode="F" horiz-adv-x="1104" 
d="M503 1019h11q80 0 129 -81l13 -34l28 -10h2q37 21 76 21q80 0 130 -74q21 -36 21 -79q0 -38 -21 -76q9 -33 23 -33q55 -18 86 -71q18 -40 18 -71q0 -94 -96 -142q-23 -3 -23 -16q-4 -4 -8 -18q21 -37 21 -81q0 -95 -103 -142q-33 -6 -48 -6q-38 0 -79 21q-28 -10 -28 -15
q-6 -30 -43 -72q-51 -40 -102 -40q-100 0 -146 106q0 13 -28 19l-1 2h-2q-37 -21 -79 -21q-93 0 -140 97q-8 25 -10 53q0 40 21 77v2q-7 33 -24 33q-26 4 -70 48q-31 46 -31 89v11q0 89 99 137q19 0 25 28l1 5q-21 41 -21 77q0 91 91 139q32 13 61 13q32 0 80 -21
q30 8 30 24q21 56 73 85q32 16 64 16zM330 864q-30 25 -66 25h-17q-70 0 -110 -81q-7 -24 -7 -36v-17q0 -33 25 -67q-21 -51 -25 -53q-38 -5 -74 -41q-31 -36 -31 -83v-6q0 -69 74 -111q36 -8 36 -15l20 -48q-25 -31 -25 -66v-6l-1 -2l1 -1v-9q0 -61 71 -105q34 -12 55 -12
q39 0 74 25h1q52 -19 53 -23q0 -31 43 -78q41 -28 74 -28h17q52 0 94 53q15 19 23 56l51 20h2q36 -25 75 -25q80 0 119 86q7 26 7 41q0 38 -25 74v2q19 53 25 53q31 2 72 39q32 40 32 76v17q0 66 -73 107q-38 10 -38 16l-18 47v1q25 36 25 74q0 78 -79 117q-22 9 -43 9h-13
q-33 0 -68 -25l-51 21q-5 40 -45 81q-41 28 -76 28h-6q-87 0 -121 -92q0 -21 -28 -25q0 -2 -29 -13zM501 932h12q27 0 49 -28l-1 -2q-16 3 -45 3h-15q-28 0 -44 -3v3q22 27 44 27zM259 828l8 -2v-2q-38 -32 -72 -72h-2l-2 10q0 46 50 64zM760 828q46 0 64 -48l2 -18v-7
l-3 -3q-31 38 -73 72v2zM510 711l24 -2v-2q-9 -10 -26 -10q-16 0 -23 10v2zM440 697q24 -39 70 -39q39 0 70 39l12 -6l-2 -17v-5q0 -57 66 -77l13 -2l22 4l5 -15q-40 -26 -40 -69q0 -39 40 -71l-5 -12l-17 2h-8q-51 0 -74 -61l-2 -15v-8l2 -17l-13 -5q-29 40 -71 40
q-39 0 -69 -40h-2l-12 5l4 22q-14 79 -79 79h-5l-17 -2l-6 13q39 27 39 70q0 42 -39 70l6 14l20 -4q54 0 77 61l4 20l-4 20q10 6 15 6zM386 668l1 -2v-2q-10 -32 -32 -32l-4 3zM633 668q33 -31 33 -35v-1q-36 8 -36 34l2 2h1zM450 650q0 -33 -51 -71l-30 -12q17 -26 17 -53
v-8q0 -27 -17 -53v-1q26 0 61 -38q11 -11 22 -43q28 16 58 16q25 0 57 -16v2q18 52 53 69l28 11q-16 28 -16 58q0 25 16 58h-2q-21 0 -59 36q-17 28 -20 45h-1q-26 -17 -53 -17h-8q-27 0 -53 17h-2zM114 562h3q-3 -16 -3 -44v-15q0 -29 3 -45l-2 -1h-1q-27 24 -27 49v12
q0 22 27 44zM902 562h2q28 -21 28 -52t-28 -52h-2l3 53zM310 534h2q10 -6 10 -24q0 -15 -10 -25h-2l-2 28zM706 534h1l2 -11v-22l-2 -16h-3q-8 17 -8 25q0 14 10 24zM355 389q32 -10 32 -36h-1q-17 11 -35 34l2 2h2zM666 389v-2q0 -5 -34 -34h-2v2q0 24 36 34zM511 323
l23 -8v-3l-16 -2h-22l-11 2v1q9 10 26 10zM193 269h2q34 -42 72 -73l-3 -3h-7q-53 0 -66 59v9zM821 269h2l3 -4v-9q0 -46 -51 -61l-15 -2h-6l-4 3v2q42 29 71 71zM457 117l53 -3l51 3v-2q-21 -28 -53 -28q-29 0 -51 28v2z" />
    <glyph glyph-name="G" unicode="G" horiz-adv-x="1104" 
d="M502 1017h11q80 0 129 -81l13 -34l28 -10h2q37 21 75 21q80 0 130 -74q22 -36 22 -79q0 -37 -22 -75q9 -33 23 -33q55 -18 86 -71q18 -40 18 -71q0 -94 -95 -141q-23 -3 -23 -17q-5 -3 -9 -18q22 -37 22 -81q0 -95 -104 -141q-32 -7 -48 -7q-37 0 -79 22q-29 -10 -29 -18
q-14 -50 -56 -81q-46 -28 -87 -28q-92 0 -139 91q-8 26 -13 26l-25 10q-37 -22 -79 -22q-92 0 -139 97q-9 26 -10 53q0 40 21 77v2q-7 33 -25 33q-25 5 -69 48q-31 46 -31 89v11q0 89 99 137q19 0 24 28l2 5q-21 40 -21 77q0 99 105 145l46 6q33 0 81 -21q29 8 29 25
q21 55 73 84q32 16 64 16zM329 862q-33 27 -74 27q-69 0 -110 -66q-15 -29 -15 -53v-16q0 -33 25 -68q-21 -50 -25 -52q-54 -14 -74 -42q-31 -35 -31 -82v-6q0 -68 74 -111q36 -8 36 -15l20 -47q-25 -31 -25 -66v-7l-2 -1l2 -2v-8q0 -62 71 -105q34 -12 54 -12q39 0 74 25h2
q51 -19 52 -23q3 -34 40 -74q41 -32 77 -32h12q80 0 115 86q4 28 21 28l37 15h1q36 -25 76 -25q80 0 118 86q7 25 7 41q0 37 -25 74v1q19 53 25 53q32 2 72 40q32 39 32 75v17q0 65 -73 107q-37 10 -38 15l-18 47v2q25 35 25 74q0 78 -79 117q-16 6 -46 10q-40 0 -77 -27
l-51 22q-6 39 -45 80q-41 28 -76 28h-6q-87 0 -120 -92q0 -20 -28 -25zM500 930h12q27 0 49 -28l-1 -2q-16 3 -45 3h-15q-28 0 -44 -3v3q22 27 44 27zM258 826l9 -2v-1q-40 -33 -73 -73h-1l-2 10q0 47 49 64zM759 826q52 0 65 -57v-15l-3 -4q-33 41 -72 73v1zM509 709
q120 0 182 -120q17 -38 17 -76v-4q0 -120 -119 -183q-42 -17 -77 -17h-8q-114 0 -180 119q-16 44 -16 82q0 117 117 181q42 18 84 18zM332 509q0 -99 98 -157q38 -18 82 -18q82 0 140 76q31 46 31 99v1q0 105 -105 160q-38 15 -73 15q-99 0 -158 -104q-15 -43 -15 -72z
M114 561h3q-3 -16 -3 -44v-15q0 -29 3 -45l-2 -1h-1q-27 24 -27 49v12q0 22 27 44zM900 561h2q28 -22 28 -52q0 -31 -28 -52h-2l3 53zM193 268h1q34 -41 73 -72l-4 -3h-6q-54 0 -66 59v8zM820 268h1l3 -3v-7q0 -51 -52 -64l-13 -1h-7l-3 3v1q41 29 71 71zM456 117l53 -3
l51 3v-2q-21 -28 -53 -28q-29 0 -51 28v2z" />
    <glyph glyph-name="H" unicode="H" horiz-adv-x="1100" 
d="M501 1021h19q55 0 107 -52q63 -16 129 -52q107 0 150 -96q9 -19 13 -73q25 -36 46 -104q0 -17 26 -41q30 -43 30 -87v-11q0 -61 -52 -111q0 -27 -52 -129q0 -116 -111 -155l-58 -8q-26 -20 -104 -46q-17 0 -41 -26q-43 -30 -87 -30h-11q-60 0 -111 52q-29 2 -125 50
q-113 0 -156 104q-7 16 -11 67q-48 88 -50 119q-27 31 -35 48q-17 33 -17 61v19q0 55 52 107q16 63 52 129q0 125 128 159q40 0 59 15q45 24 106 41q48 50 104 50zM275 887l-15 2q-86 0 -123 -89q-5 -23 -5 -44l2 -8q-38 -59 -58 -139q-48 -38 -48 -98q0 -59 48 -101
q4 -34 54 -133l2 -2h2l-2 -15q0 -92 96 -124l34 -4h3l10 2q46 -34 124 -54q9 0 30 -22q37 -30 76 -30h11q52 0 95 48q34 4 133 54l2 2v2l10 -2h1q97 0 128 94l4 38v1l-2 10q26 34 47 96q11 50 24 50q35 42 35 84v11q0 52 -48 95q-4 34 -54 133l-2 2h-2l2 10v3q0 92 -91 125
q-18 5 -42 5l-10 -2q-47 33 -126 56q-10 0 -33 26q-37 24 -76 24q-59 0 -101 -48q-81 -21 -135 -58zM501 735h19q111 0 185 -111q32 -57 32 -113q0 -115 -104 -190q-60 -37 -122 -37q-124 0 -199 119q-26 52 -26 98v19q0 111 111 185q53 30 104 30zM314 518v-15
q0 -102 106 -169q47 -20 81 -20h19q94 0 161 96q26 50 26 91v19q0 97 -100 163q-49 24 -89 24h-15q-106 0 -171 -111q-18 -44 -18 -78z" />
    <glyph glyph-name="I" unicode="I" 
d="M501 1024h22q65 0 149 -23v-5q-28 9 -94 13q-185 0 -311 -158q-75 -105 -75 -217v-24q0 -182 175 -313q73 -43 139 -43h12q54 0 122 32q-103 -79 -220 -79h-23q-188 0 -316 177q-60 98 -60 209q0 209 229 361q127 70 251 70zM599 996q208 0 348 -213q77 -125 77 -265v-15
q0 -63 -21 -145h-5q11 55 11 88q0 210 -198 339q-95 47 -182 47h-17q-183 0 -313 -173q-45 -71 -45 -141v-12q0 -42 23 -107q-64 93 -64 203v21q0 170 156 299q106 74 230 74zM604 811h17q172 0 301 -156q74 -105 74 -230v-5q0 -202 -213 -343q-125 -77 -262 -77h-15
q-76 0 -160 26v4q55 -15 106 -15q187 0 314 164q70 104 70 224q0 205 -192 333q-70 34 -126 34h-12q-42 0 -107 -23q94 64 205 64zM732 651h2v-5h-2v5zM736 644q79 -100 79 -234q0 -146 -109 -265q-119 -117 -271 -117h-17q-209 0 -354 234q-64 118 -64 239v22l6 81h5
l-2 -30q0 -218 202 -344q91 -44 171 -44h28q169 0 300 160q60 77 60 160v12q0 62 -34 122v4z" />
    <glyph glyph-name="J" unicode="J" horiz-adv-x="1100" 
d="M501 1024h22q65 0 149 -23v-5q-28 9 -94 13q-185 0 -311 -158q-75 -105 -75 -217v-24q0 -182 175 -313q73 -43 139 -43h12l56 6q-18 -13 -68 -19q-30 -6 -64 -6q-180 0 -305 151q-79 108 -79 220v6l-3 9l3 8v7q0 160 140 283q148 105 303 105zM599 996q131 0 222 -77h-4
q-96 58 -192 58h-21q-180 0 -310 -166q-66 -105 -66 -212v-19q0 -76 45 -175q-60 91 -60 197v21q0 170 156 299q106 74 230 74zM617 958h25q143 0 265 -117q117 -149 117 -323v-15q0 -63 -21 -145h-5q11 55 11 88q0 210 -198 339q-95 47 -182 47h-17q-183 0 -313 -173
q-45 -71 -45 -141v-23h-4v2q-7 42 -7 70v11q0 200 190 329q98 51 184 51zM823 917h5v-2h-5v2zM604 811h17q172 0 301 -156q74 -105 74 -230v-5q0 -126 -77 -217v2q60 101 60 209q0 168 -136 292q-113 92 -248 92h-4q-81 0 -169 -39h-2q84 52 184 52zM79 787h2v-4h-2v4z
M576 783q207 0 335 -196q49 -94 49 -194q0 -161 -126 -280q-145 -113 -313 -113h-15q-76 0 -160 26v4q55 -15 106 -15q187 0 314 164q70 104 70 224q0 205 -192 333q-70 34 -126 34h-27v4q52 9 85 9zM77 781v-2q-39 -90 -39 -160v-26q0 -164 148 -292q111 -81 236 -81h3
q88 0 187 47q-91 -60 -192 -60h-23q-188 0 -316 177q-60 98 -60 209q0 110 56 188zM480 772h4v-4h-4v4zM755 617q60 -91 60 -207q0 -146 -109 -265q-119 -117 -271 -117h-17q-134 0 -239 96h2q109 -77 226 -77h15q174 0 303 156q75 107 75 234q0 81 -45 180zM6 604h5l-2 -30
q0 -218 202 -344q91 -44 171 -44h28q169 0 300 160q60 77 60 160v12l-4 43h4q15 -67 15 -109q0 -148 -107 -266q-122 -120 -268 -120h-20q-167 0 -292 143q-98 139 -98 292v22zM614 271h5v-2h-5v2zM915 201h2v-5h-2v5zM169 132h2l6 -6h-2z" />
    <glyph glyph-name="K" unicode="K" 
d="M501 1024h20q57 0 130 -17v-4q-31 6 -73 6q-189 0 -313 -164q-71 -101 -71 -224q0 -203 194 -337q65 -30 120 -30h8q63 0 124 34h4q-101 -81 -234 -81q-199 0 -325 177q-62 101 -62 209q0 232 265 382q112 49 213 49zM587 996h30q188 0 334 -219q73 -124 73 -256v-18
q0 -43 -11 -104h-4l2 43v10q0 206 -196 333q-97 49 -190 49q-199 0 -333 -185q-38 -65 -38 -137q0 -44 17 -96q-56 85 -56 196q0 182 154 307q107 77 218 77zM617 813q200 0 328 -188q56 -97 56 -200q0 -207 -233 -359q-125 -66 -247 -66h-18q-83 0 -166 30v2h2
q56 -17 111 -17q193 0 316 160q72 103 72 218v19q0 181 -170 311q-81 47 -156 47q-50 0 -107 -21q20 20 90 45q60 19 122 19zM512 759q152 0 230 -155q17 -57 17 -92q0 -145 -142 -224q-58 -23 -105 -23q-152 0 -230 155q-17 56 -17 92q0 152 155 230q35 13 92 17zM717 672
l4 -4v-2l-4 4v2zM723 663q94 -107 94 -243v-15q0 -187 -171 -313q-100 -64 -200 -64h-30q-204 0 -352 232q-64 123 -64 241v22q0 48 13 111h4l-4 -56v-13q0 -194 181 -322q99 -57 205 -57q215 0 341 204q30 61 30 118v8q0 75 -47 145v2zM15 642h4v-4h-4v4zM388 514v-4
q0 -83 92 -117l30 -5h4q83 0 117 92l5 30v4q0 84 -92 117l-30 5h-4q-84 0 -117 -92zM514 623q75 0 105 -83l4 -28q0 -75 -81 -107l-30 -4q-81 0 -109 90l-2 23q0 78 90 107zM457 512q0 -46 57 -55q42 0 53 55q-10 55 -55 55q-55 -9 -55 -55zM508 557h8q41 -7 41 -41v-8
q-7 -41 -41 -41h-8q-41 7 -41 41v8q7 41 41 41zM491 514v-4q2 -19 19 -19h4q19 2 19 19v4q-2 19 -19 19h-4q-19 -2 -19 -19zM1007 395h4v-5h-4v5zM646 292h5v-2h-5v2z" />
    <glyph glyph-name="L" unicode="L" 
d="M500 1021h19q245 0 415 -221q87 -139 87 -281v-17q0 -244 -221 -415q-139 -87 -281 -87h-17q-194 0 -351 147q-151 158 -151 353v21q0 230 200 396q141 104 300 104zM485 768v-4q4 0 26 -22q21 22 25 22v4h-51zM304 632q0 -49 55 -75l20 -4h10q56 0 79 66v17q0 69 -83 81
q-52 0 -77 -60zM553 638v-13q17 -72 79 -72h10q50 0 73 66l2 15q-15 81 -77 81l-6 2q-81 -14 -81 -79zM253 536v-51l26 28q-22 17 -22 23h-4zM742 511v-3q5 0 26 -23v51h-2zM496 511l15 -15l14 15l-14 14zM304 389q12 -83 81 -83h4q56 0 79 66v17q0 58 -64 79l-17 2
q-57 0 -81 -64zM553 391v-12q0 -47 66 -73h17q62 0 79 73l2 8q0 58 -66 81l-19 2q-79 -15 -79 -79zM485 255v-2h51v2l-25 24z" />
    <glyph glyph-name="M" unicode="M" horiz-adv-x="1100" 
d="M510 1021h15v-4h-6q-104 0 -211 -80h2l109 53q72 23 130 23h15q92 0 171 -45v-2q-80 35 -157 35q-54 0 -127 -21v-2h2l153 10q171 0 293 -141v-2q-86 82 -150 100q-76 23 -118 23h-2v-2q57 -15 129 -51q138 -48 210 -182q18 -36 22 -53l-40 71q-68 86 -129 115h-2v-2
q5 0 59 -57q143 -116 143 -311v-8h-4v4q0 130 -90 239q45 -97 45 -133q31 -73 31 -153q0 -99 -45 -177v4q32 74 32 140v25q0 30 -8 69h-2q-8 -184 -24 -208q-38 -117 -119 -180h-2q87 94 106 176l7 39v2h-1l-57 -129q-69 -127 -212 -181h-4l59 32q95 67 131 141v2h-2
q0 -5 -64 -67q-123 -133 -285 -133h-19v4h4q111 0 227 84v2h-2q-38 -22 -127 -43q-66 -29 -145 -29h-4q-90 0 -179 43v4h2q80 -36 157 -36l79 8v2q-135 11 -169 18q-74 11 -153 66q-29 21 -68 67v2q82 -80 149 -100l62 -18h2v2q-136 62 -178 96q-103 96 -122 177l40 -71
q47 -62 101 -100l8 -4v2l-92 98q-86 115 -86 236v17h4v-6q0 -103 78 -209v2l-55 143q-15 54 -15 102v19q0 91 43 165v-4q-31 -74 -31 -151q0 -37 13 -100h2v10l2 61l-2 52q0 161 135 285h2q-79 -87 -102 -169l-13 -71v-1h2q0 18 59 129q16 51 90 129q72 63 141 83l-65 -36
q-75 -51 -116 -119h2l98 92q111 88 238 88zM182 903h4v-2h-4v2zM486 747l25 -24q11 16 24 22v2l-27 2zM321 621q0 -61 77 -72q50 0 72 60l2 14q-12 77 -74 77h-4q-52 0 -73 -61v-18zM549 625v-2q0 -63 76 -74q51 0 73 59l2 19q0 51 -63 73h-16q-61 0 -72 -75zM274 535
l-2 -20v-7l2 -20l22 23q-20 20 -20 24h-2zM723 510l24 -24v49zM496 511l15 -15q3 11 14 14l-15 15zM321 406v-12q0 -61 77 -73q47 0 70 55l4 22q-13 74 -74 74h-4q-47 0 -69 -51zM549 398v-2q0 -63 76 -75q50 0 73 59l2 20q0 51 -63 72h-16q-61 0 -72 -74zM484 274h51
l-25 24z" />
    <glyph glyph-name="N" unicode="N" horiz-adv-x="1104" 
d="M510 1021h15v-4h-6q-104 0 -211 -80h2l109 53q72 23 130 23h15q92 0 171 -45v-2q-80 35 -157 35q-54 0 -127 -21v-2h2l153 10q171 0 293 -141v-2q-86 82 -150 100q-76 23 -118 23h-2v-2q57 -15 129 -51q138 -48 210 -182q18 -36 22 -53l-40 71q-68 86 -129 115h-2v-2
q5 0 59 -57q143 -116 143 -311v-8h-4v4q0 130 -90 239q45 -97 45 -133q31 -73 31 -153q0 -99 -45 -177v4q32 74 32 140v25q0 30 -8 69h-2q-8 -184 -24 -208q-38 -117 -119 -180h-2q87 94 106 176l7 39v2h-1l-57 -129q-69 -127 -212 -181h-4l59 32q95 67 131 141v2h-2
q0 -5 -64 -67q-123 -133 -285 -133h-19v4h4q111 0 227 84v2h-2q-38 -22 -127 -43q-66 -29 -145 -29h-4q-90 0 -179 43v4h2q80 -36 157 -36l79 8v2q-135 11 -169 18q-74 11 -153 66q-29 21 -68 67v2q82 -80 149 -100l62 -18h2v2q-136 62 -178 96q-103 96 -122 177l40 -71
q47 -62 101 -100l8 -4v2l-62 67q-116 122 -116 267v17h4v-6q0 -103 78 -209v2l-55 143q-15 54 -15 102v19q0 91 43 165v-4q-31 -74 -31 -151q0 -37 13 -100h2v10l2 61l-2 52q0 161 135 285h2q-79 -87 -102 -169l-13 -69v-2h2q0 17 59 128q16 51 90 129q72 63 141 83l-65 -36
q-75 -51 -116 -119h2l98 92q111 88 238 88zM182 903h4v-2h-4v2zM272 510q0 -135 130 -210q54 -28 109 -28q111 0 191 98q45 65 45 132v17q0 123 -126 202q-59 28 -111 28q-135 0 -212 -132q-26 -53 -26 -107z" />
    <glyph glyph-name="O" unicode="O" 
d="M503 1021h15q13 0 60 -13q128 -22 207 -77q28 -21 77 -50q28 -23 46 -67q66 -73 96 -217l17 -71v-21q0 -14 -17 -77q-10 -98 -89 -217q-6 -3 -32 -50q-35 -37 -62 -44q-66 -51 -128 -75q-69 -23 -131 -32q-21 -10 -46 -10h-11q-17 0 -58 13q-121 18 -209 75
q-33 26 -86 56q-14 16 -50 75q-69 94 -89 224q-13 47 -13 60v15q0 13 17 77q7 97 104 236q18 42 63 67q17 8 85 54q78 42 195 61q14 8 39 8zM261 553l6 -44l-6 -39q11 -63 46 -109q15 0 60 -60q62 -35 103 -40q24 6 42 6l41 -6q82 19 109 50q12 26 58 56q35 62 40 103
q-6 24 -6 42l6 39q-14 71 -48 111q-16 0 -58 58q-58 35 -105 40l-40 -6l-41 6q-59 -10 -107 -46q0 -14 -50 -52q-14 0 -44 -84z" />
    <glyph glyph-name="P" unicode="P" horiz-adv-x="1100" 
d="M508 1021h9q52 0 100 -51q85 -22 143 -61l2 2h12q94 0 131 -96l4 -29v-26q57 -101 57 -135q2 -7 28 -33q27 -39 27 -81q0 -61 -53 -107q-3 -40 -55 -137q-3 0 -4 -10v-22q0 -72 -84 -115q-23 -8 -39 -8h-22l-66 -34q-45 -17 -85 -27q-39 -51 -105 -51q-57 0 -106 53
q-54 10 -130 51l-11 8h-26q-78 0 -117 88q-8 17 -8 49v14q-39 60 -59 143q-51 43 -51 98v9q0 61 51 104q7 45 51 132q5 0 8 15v12q0 94 96 129q14 6 39 6h12l55 28q33 15 96 33q37 49 100 49zM272 510q0 -139 138 -214q46 -22 92 -22h19q115 0 196 120q30 60 30 106v19
q0 126 -130 204q-54 26 -107 26q-139 0 -216 -138q-22 -53 -22 -101z" />
    <glyph glyph-name="Q" unicode="Q" 
d="M507 1021h7q88 0 125 -97q0 -23 21 -23q32 -15 38 -15q38 26 80 26q87 0 127 -94q5 -18 5 -37v-7q0 -40 -26 -78q10 -18 22 -54q32 0 79 -38q36 -43 36 -95q0 -85 -89 -124q-27 -6 -27 -12l-21 -50q26 -35 26 -71v-16q0 -73 -83 -116q-25 -9 -42 -9h-16q-34 0 -73 26
l-54 -22q0 -35 -43 -82q-40 -33 -90 -33q-92 0 -129 101q0 17 -14 17l-41 19q-38 -26 -78 -26h-7q-88 0 -125 97l-6 37q0 40 26 78q-20 57 -26 57q-38 0 -83 51q-26 35 -26 76v7q0 89 96 125q20 2 20 10l21 49q-28 34 -28 82q0 70 70 114q32 18 66 18q43 0 78 -28l56 24
q0 44 57 92q36 21 71 21zM455 925v-1q9 3 40 3h31l38 -2q-19 30 -55 30q-31 0 -54 -30zM177 766h2q35 43 76 76v2h-14q-45 0 -64 -54v-24zM764 844q75 -68 76 -80h2l2 14q-11 66 -64 66h-16zM300 517v-13q0 -107 108 -178q50 -26 104 -26q123 0 191 125q18 46 18 87
q0 123 -122 190q-43 19 -82 19h-13q-97 0 -165 -89q-39 -56 -39 -115zM66 509q0 -32 30 -52l-2 38v31q0 31 3 40h-1q-30 -22 -30 -57zM924 566l3 -54v-3l-3 -54q31 23 31 56t-31 55zM177 257v-16q0 -43 50 -62l21 -2l9 2v2q-12 1 -80 76zM764 179l9 -2h3q68 10 68 68v3l-2 9
q-35 -43 -78 -78zM455 97q22 -31 56 -31q32 0 55 31l-54 -3h-3z" />
    <glyph glyph-name="R" unicode="R" horiz-adv-x="1100" 
d="M509 1024h6q89 0 126 -98q0 -22 21 -22q32 -16 38 -16q38 26 80 26q87 0 127 -94q6 -18 6 -36v-7q0 -41 -27 -79q11 -18 23 -54q32 0 78 -38q37 -43 37 -96q0 -84 -89 -123q-28 -7 -28 -13l-21 -50q27 -35 27 -71v-16q0 -74 -84 -117q-25 -9 -42 -9h-16q-34 0 -73 27
l-54 -23q0 -34 -43 -82q-41 -33 -91 -33q-92 0 -129 101q0 17 -14 17l-41 20q-38 -27 -79 -27h-7q-88 0 -125 98l-5 37q0 40 26 78q-21 57 -26 57q-39 0 -84 51q-26 35 -26 77v6q0 89 96 126q21 2 21 10l21 49q-28 35 -28 80q0 89 95 129l41 5q43 0 78 -28l56 25q0 44 57 92
q37 21 72 21zM456 928v-2q9 4 40 4h26l44 -2q-19 30 -56 30q-30 0 -54 -30zM178 768h1q35 42 77 77v1h-14q-45 0 -64 -54v-24zM766 846q75 -68 77 -80h2l1 14q-10 66 -64 66h-16zM486 719q14 -8 29 -8q23 5 23 10l-2 2h-47zM425 705l2 -26q0 -58 -68 -80l-18 -2l-22 2
l-4 -14q40 -27 40 -66v-14q0 -39 -40 -64v-2l4 -14l12 2h17q50 0 75 -61q4 -8 4 -23v-2l-2 -21l14 -5q25 42 75 42q40 0 73 -42l12 5l-2 13v15q0 58 72 79h22l13 -2l5 14q-42 27 -42 75q0 42 42 73v2l-5 10l-21 -2h-2q-61 0 -84 70v26l2 12l-14 4h-2q-25 -40 -64 -40h-14
q-37 0 -68 40zM345 641h3q35 10 35 38q-21 -15 -38 -38zM641 677q8 -36 36 -36v2q-17 21 -34 34h-2zM66 510q0 -31 30 -52l-2 44v26q0 31 4 40h-2q-30 -23 -30 -58zM926 568l4 -54v-4l-4 -54q32 24 32 56q0 34 -32 56zM719 540q-8 -16 -8 -25v-5q4 -24 10 -24l2 17v16l-2 21
h-2zM303 538l-2 -2v-47l4 -3q8 16 8 26q0 16 -10 26zM347 383v-2q13 -17 34 -34h2v1q0 26 -36 35zM641 350v-3q6 0 36 36h-3q-23 0 -33 -33zM484 305v-2l21 -2h16l17 2q0 6 -24 10h-5q-9 0 -25 -8zM178 258v-16q0 -44 50 -63l21 -1l9 1v2q-12 2 -80 77zM766 179l9 -1h3
q68 9 68 68v3l-1 9q-36 -44 -79 -79zM456 98q22 -32 56 -32q32 0 56 32l-54 -4h-4z" />
    <glyph glyph-name="S" unicode="S" horiz-adv-x="1100" 
d="M509 1024h6q89 0 126 -98q0 -22 21 -22q32 -16 38 -16q38 26 80 26q87 0 127 -94q6 -18 6 -36v-7q0 -41 -27 -79q11 -18 23 -54q32 0 78 -38q37 -43 37 -96q0 -84 -89 -123q-28 -7 -28 -13l-21 -50q27 -35 27 -71v-16q0 -74 -84 -117q-25 -9 -42 -9h-16q-34 0 -73 27
l-54 -23q0 -34 -43 -82q-41 -33 -91 -33q-92 0 -129 101q0 17 -14 17l-41 20q-38 -27 -79 -27h-7q-88 0 -125 98l-5 37q0 40 26 78q-21 57 -26 57q-39 0 -84 51q-26 35 -26 77v6q0 89 96 126q21 2 21 10l21 49q-28 35 -28 80q0 89 95 129l41 5q43 0 78 -28l56 25q0 44 57 92
q37 21 72 21zM456 928v-2q9 4 40 4h26l44 -2q-19 30 -56 30q-30 0 -54 -30zM178 768h1q35 42 77 77v1h-14q-45 0 -64 -54v-24zM766 846q75 -68 77 -80h2l1 14q-10 66 -64 66h-16zM486 719q14 -8 29 -8q23 5 23 10l-2 2h-47zM425 705l2 -26q0 -14 -7 -29q33 0 45 -34l2 -19
l17 7v2q-12 0 -19 35q0 12 12 35h-2q-16 6 -38 33zM583 709q-22 -33 -38 -33v-2q12 -15 12 -28v-9q0 -15 -17 -33l17 -7q0 38 28 49l14 4h4l-6 26v17l2 12l-14 4h-2zM345 641h3q35 10 35 38q-21 -15 -38 -38zM641 677q8 -36 36 -36v2q-17 21 -34 34h-2zM489 639
q0 -13 21 -21q25 5 25 25q-5 21 -21 21h-5q-18 0 -20 -25zM397 603q6 -21 21 -21h2q22 1 22 22v2q0 17 -24 21q-15 0 -21 -24zM580 603q6 -21 21 -21h2q22 1 22 22v2q-5 21 -21 21q-24 -4 -24 -24zM341 597l-22 2l-4 -14q25 -17 35 -38q19 12 31 12q37 -7 37 -19h2l7 17
q-42 0 -53 37v10q-14 -7 -33 -7zM650 601q0 -36 -47 -44h-6v-1l6 -14h1q18 17 37 17q16 0 33 -14q0 13 35 42v2l-5 10l-21 -2h-2l-31 6v-2zM66 510q0 -31 30 -52l-2 44v26q0 31 4 40h-2q-30 -23 -30 -58zM926 568l4 -54v-4l-4 -54q32 24 32 56q0 34 -32 56zM463 512
q9 -47 47 -47h5q44 9 44 44v3q-6 49 -49 49q-38 0 -47 -49zM719 540q-8 -16 -8 -25v-5q4 -24 10 -24l2 17v16l-2 21h-2zM303 538l-2 -2v-47l4 -3q8 16 8 26q0 16 -10 26zM360 515v-3q3 -23 23 -23q23 6 23 23q0 20 -26 23q-20 -6 -20 -20zM618 509q9 -20 23 -20q20 0 23 25
q-5 21 -21 21h-4q-21 0 -21 -26zM418 484q0 -10 -31 -17h-9q-13 0 -28 12h-2q0 -16 -33 -38v-2l4 -14l12 2h17l26 -6v4q0 34 46 42h7q-6 17 -9 17zM603 484l-6 -17h6q47 -6 47 -46l26 6h15l13 -2l5 14q-17 8 -37 40q-12 -12 -26 -12h-10q-15 0 -33 17zM397 421q4 -22 21 -22
h2q22 2 22 22v2q0 15 -21 21q-24 -5 -24 -23zM580 420q6 -21 21 -21h5q14 0 19 19v5q0 15 -21 21q-24 -4 -24 -24zM467 427v-2q0 -33 -26 -45l-20 -7q6 -17 6 -30v-2l-2 -21l14 -5q12 23 40 35q-14 17 -14 33q0 19 17 37v1zM540 421q17 -18 17 -33v-10q0 -12 -12 -28
q18 -6 42 -35l12 5l-2 13v15l6 26h-2q-37 0 -44 47v6h-1zM489 385v-4q5 -21 21 -21q25 0 25 25q-8 21 -23 21q-23 -4 -23 -21zM347 383v-2q13 -17 34 -34h2v1q0 26 -36 35zM641 350v-3q6 0 36 36h-3q-23 0 -33 -33zM484 305v-2l21 -2h16l17 2q0 6 -24 10h-5q-9 0 -25 -8z
M178 258v-16q0 -44 50 -63l21 -1l9 1v2q-12 2 -80 77zM766 179l9 -1h3q68 9 68 68v3l-1 9q-36 -44 -79 -79zM456 98q22 -32 56 -32q32 0 56 32l-54 -4h-4z" />
    <glyph glyph-name="T" unicode="T" 
d="M503 1017h14q73 0 122 -82q7 -35 21 -35l28 -12q38 23 79 23q87 0 134 -92q9 -30 9 -54q0 -40 -24 -77q15 -39 19 -39q49 -12 78 -48q34 -42 34 -92q0 -92 -97 -136q-22 -2 -22 -17l-12 -25q24 -36 24 -83q0 -91 -99 -134q-22 -7 -47 -7q-40 0 -78 24q-38 -16 -38 -20
q-13 -49 -46 -74q-41 -37 -93 -37q-98 0 -140 104q0 15 -15 15l-27 12q-31 -24 -79 -24q-94 0 -136 101q-5 18 -6 42q0 41 23 79q-12 40 -22 40q-60 20 -85 62q-22 38 -22 69v14q0 57 47 102q22 21 67 35l15 37q-23 39 -23 81q0 75 72 122q35 20 72 20q36 0 81 -23
q38 15 38 20q1 30 47 77q42 32 87 32zM257 597q0 -152 134 -251l17 -10v1q-68 37 -99 136q-14 48 -14 88q0 149 133 250q83 52 156 52h32q107 0 206 -96v2q-100 109 -225 109h-20q-126 0 -226 -113q-67 -88 -67 -191q0 -58 28 -129v-2q-38 66 -38 146q0 117 85 210
q95 92 208 92h22q56 0 114 -27h2v2q-72 35 -146 35q-163 0 -264 -154q-38 -77 -38 -150zM250 819q-109 -100 -109 -230v-8q0 -156 146 -257q80 -44 158 -44q62 0 136 32q-64 -42 -153 -42q-149 0 -247 129q-55 79 -55 177q0 63 27 122v2h-2q-35 -77 -35 -143
q0 -148 129 -248q81 -56 176 -56q164 0 262 151v2h-2q-26 -47 -77 -77q-72 -35 -134 -35h-22q-121 0 -220 105q-72 89 -72 192v15q0 115 96 213h-2zM334 614v-1h2q35 67 137 100q46 14 88 14q149 0 248 -130q55 -81 55 -172q0 -126 -92 -222h2q105 99 105 233
q0 148 -129 247q-81 55 -176 55q-65 0 -139 -33q66 42 152 42q169 0 267 -160q35 -69 35 -134v-20q0 -55 -25 -112v-2h2q34 72 34 143q0 152 -138 253q-80 49 -165 49h-3q-161 0 -260 -150zM624 678q39 -28 62 -67q39 -76 39 -151q0 -166 -156 -265q-73 -37 -138 -37h-20
q-111 0 -210 92v-2q101 -105 224 -105h16q130 0 229 112q67 87 67 188v5q0 91 -56 173h2q69 -83 69 -191q0 -150 -129 -249q-81 -55 -177 -55q-59 0 -119 25h-1v-2q71 -32 129 -32h20q133 0 235 123q59 85 59 181q0 158 -143 257h-2zM441 670l-1 -12v-5l11 -4l4 11zM562 660
l4 -12l11 5l-1 8v9h-2zM502 636v-5l3 -3h5l5 5v1l-6 7zM676 628h4v-4zM413 594l5 -3h3l5 5v3q0 4 -6 5q-7 -2 -7 -10zM589 594l5 -3h3l5 5v3q0 4 -6 5q-7 -2 -7 -10zM347 576l10 -14l11 4l-4 11h-5zM651 577l-3 -11h1l11 -4l8 14l-12 1h-5zM477 507q0 -23 30 -29h5
q27 8 27 27v5q0 26 -32 30h-2q-23 0 -28 -33zM376 510q3 -7 7 -8h1l5 5v5l-3 3h-5zM626 510v-3q0 -3 7 -5l6 5v3l-5 5h-3zM356 455l-9 -12v-2h9l8 -1l5 11zM648 450l5 -10l2 1h13v2q-7 12 -12 12zM413 418l5 -3h7l1 8q0 2 -6 5q-7 -2 -7 -10zM589 418l5 -3h5l3 3v5q0 4 -6 5
q-7 -2 -7 -10zM502 386v-3l5 -5h3q3 0 5 6q-2 7 -5 7h-3zM440 366v-5l1 -12l14 8l-5 12zM566 368l-4 -11l12 -8h2v12l1 1v2l-11 5v-1zM584 316h3v-2h-3v2z" />
    <glyph glyph-name="U" unicode="U" 
d="M510 1026h6q89 0 126 -98q0 -22 21 -22q33 -16 38 -16q38 26 81 26q87 0 127 -94q5 -18 5 -37v-7q0 -40 -26 -78q11 -19 23 -54q32 0 78 -39q37 -43 37 -96q0 -84 -89 -124q-28 -7 -28 -12l-21 -50q26 -35 26 -72v-16q0 -74 -83 -117q-25 -8 -42 -8h-16q-35 0 -73 26
l-54 -23q0 -34 -44 -82q-41 -33 -91 -33q-92 0 -129 101q0 18 -14 18l-42 19q-38 -26 -78 -26h-7q-88 0 -126 97l-5 37q0 40 26 79q-20 57 -26 57q-39 0 -84 51q-26 35 -26 77v6q0 89 96 126q21 3 21 11l21 48q-28 34 -28 82q0 71 70 116q32 17 66 17q43 0 79 -28l55 25
q0 44 58 92q37 21 72 21zM457 930v-2q9 4 40 4h32l38 -2q-19 30 -56 30q-30 0 -54 -30zM243 605q0 -152 141 -240q52 -26 70 -26v-4q-39 4 -105 42q-122 93 -122 228q0 152 141 241l26 12v2h-1q-98 -36 -152 -132q-30 -64 -30 -126v-5q0 -132 117 -222q75 -49 145 -49h26
q18 0 56 7v2h-2l-49 -5q-37 0 -96 31l-1 2l-2 -2l-39 35q-80 85 -80 189v12q0 147 147 239q69 31 129 31q53 0 110 -24h2v2q-65 29 -121 29h-19q-110 0 -201 -99q-63 -78 -63 -178q0 -124 107 -217h-2q-115 88 -115 224q0 154 145 242q65 33 125 33v2h-10q-137 0 -227 -117
q-50 -75 -50 -159zM396 862v-2h4v2h-4zM304 579q0 -89 57 -165q-33 48 -33 101v24h4v5h-4v2q0 104 100 196q77 62 174 62h2q157 0 244 -150l5 -12h2v2q-40 101 -140 152q-65 26 -118 26q-143 0 -236 -133q-38 -71 -38 -131v-21l3 -40h-3l-9 70q0 146 136 237q69 39 142 39
q110 0 198 -86v2q-92 98 -209 98q-146 0 -239 -135q-38 -71 -38 -143zM178 770h2q35 43 77 76v2h-14q-46 0 -65 -54v-24zM768 848q75 -69 77 -80h1l2 14q-11 66 -65 66h-15zM270 790q-96 -90 -96 -205v-9q0 -141 131 -231q70 -40 133 -40h19q53 0 122 30q-62 -40 -141 -40
q-161 0 -250 157q-26 60 -26 120q0 57 25 110v2h-2q-31 -69 -31 -129q0 -147 136 -237q68 -39 141 -39q115 0 202 91q20 21 30 40h-2q-29 -48 -96 -75l-8 2l1 -2v-3q-51 -16 -90 -16h-9q-140 0 -230 131q-41 69 -41 132v20q0 104 84 191h-2zM332 551v-3h1q8 57 56 122
q92 101 213 101q152 0 243 -143q33 -61 33 -134h1v31q0 92 -80 183q-89 81 -195 81q-135 0 -227 -121q-31 -40 -45 -117zM358 611h1q33 53 103 78l2 -2l4 4l5 -2v4l2 -2h1l37 3h19q36 0 77 -24l2 2q0 -4 29 -26q58 -53 58 -150v-13h-4v4h-1v-7h3v-2q0 -85 -85 -178
q-85 -73 -190 -73q-142 0 -231 127q-11 16 -19 37h-2v-2q20 -52 61 -96q87 -82 189 -82h17q138 0 231 136q36 68 36 145l-2 21h4l2 -30v-26q0 -113 -107 -206q-80 -56 -155 -56h-23q-100 0 -188 82v-1q91 -95 202 -95h12q141 0 233 135q38 71 38 143q0 52 -30 124
q40 -63 40 -142q0 -149 -143 -240q-64 -33 -131 -33h-7q-55 0 -108 24h-1v-2q65 -31 132 -31q142 0 232 131q40 68 40 136v21q0 123 -122 218h4q90 -50 127 -149q16 -44 16 -87v-12q0 -130 -117 -220q-67 -49 -164 -49v-1h38q97 0 187 87q73 84 73 181v13q0 125 -110 214
q-51 36 -85 42v3h2q61 -12 132 -75q77 -87 77 -186v-12q0 -124 -108 -213q-48 -33 -58 -33v-2h2q101 39 152 134q29 64 29 126q0 148 -141 241q-68 33 -127 33h-14l-42 -4v4q40 7 64 7q130 0 220 -112q54 -76 54 -161v-5q0 -112 -85 -199h2q97 90 97 213q0 145 -132 234
q-67 40 -143 40q-59 0 -124 -28q60 37 122 37h28q120 0 214 -119q47 -75 47 -152v-8q0 -54 -22 -105v-2h2q29 66 29 126q0 163 -159 251q-60 25 -111 25h-11q-131 0 -220 -117zM487 698h3v-4h-3v4zM618 667h3v-2h-3v2zM855 640v-3h2v3h-2zM66 511q0 -29 28 -52h2l-2 38v32
q0 31 4 40h-2q-30 -22 -30 -58zM928 569l4 -54v-4l-4 -54q32 24 32 56q0 34 -32 56zM145 523q0 -138 117 -228q73 -51 159 -51h1q147 0 236 135q24 36 35 96v3h-2q-6 -58 -72 -134q-84 -82 -195 -82h-5q-145 0 -234 136q-37 65 -37 122v3h-3zM700 523h3v-3h-3v3zM168 396v-3
h1v3h-1zM379 379h3v-2h-3v2zM585 340h3l-3 -3h-4zM178 258v-15q0 -56 70 -65l9 2q-39 33 -79 78zM768 180l8 -2h4q68 9 68 68v4l-2 8q-35 -43 -78 -78zM630 166v-2h3v2h-3zM457 98q22 -32 56 -32q32 0 56 32l-54 -4h-4z" />
    <glyph glyph-name="V" unicode="V" 
d="M508 1021h9q53 0 102 -53l24 -4v-4q-30 6 -57 6h-26q-154 0 -274 -143q-68 -102 -68 -212q0 -183 170 -303q55 -34 114 -34h19q54 0 114 36h4q-101 -81 -222 -81q-182 0 -299 165q-55 88 -55 182v18q0 84 47 168v14q0 94 96 129q14 6 39 6h12l55 28q33 15 96 33
q37 49 100 49zM592 956q100 0 168 -47l2 2h12q94 0 131 -96l4 -29v-26q57 -101 57 -135q2 -7 28 -33q27 -39 27 -81q0 -64 -53 -105h-2l2 23v33q0 167 -159 287q-93 56 -196 56q-181 0 -303 -166q-38 -62 -38 -129q0 -40 18 -91q-53 82 -53 183q0 191 180 309q88 45 175 45z
M600 786h8q170 0 286 -151q64 -93 64 -206q0 -91 -49 -170v-24q0 -72 -84 -115q-23 -8 -39 -8h-22l-66 -34q-45 -17 -85 -27q-39 -51 -105 -51q-57 0 -106 53l-34 8v4q50 -12 89 -12q179 0 297 163q57 96 57 192q0 174 -151 290q-72 51 -154 51q-37 0 -93 -20q46 36 136 53z
M510 694q107 0 164 -102q18 -36 18 -73v-17q0 -95 -100 -155q-38 -18 -73 -18h-17q-95 0 -153 96q-22 39 -22 86q0 122 128 175q28 8 55 8zM704 651q88 -103 88 -232q0 -173 -151 -290q-93 -64 -206 -64q-95 0 -174 47h-26q-78 0 -117 88q-8 17 -8 49v14q-39 60 -59 143
q-51 43 -51 98v9q0 61 51 104l2 12h4q-6 -35 -6 -65q0 -181 163 -297q95 -57 192 -57q177 0 298 160q43 72 43 130v19q0 66 -43 130v2zM55 637h4v-4h-4v4zM417 511q0 -61 67 -88l29 -4q62 0 87 73l2 21q0 65 -77 89l-14 2q-65 0 -90 -71z" />
    <glyph glyph-name="W" unicode="W" 
d="M507 1021h7q88 0 125 -97q0 -23 21 -23q32 -15 38 -15q38 26 80 26q87 0 127 -94q5 -18 5 -37v-7q0 -40 -26 -78q10 -18 22 -54q32 0 79 -38q36 -43 36 -95q0 -85 -89 -124q-27 -6 -27 -12l-21 -50q26 -35 26 -71v-16q0 -73 -83 -116q-25 -9 -42 -9h-16q-34 0 -73 26
l-54 -22q0 -35 -43 -82q-40 -33 -90 -33q-92 0 -129 101q0 17 -14 17l-41 19q-38 -26 -78 -26h-7q-88 0 -125 97l-6 37q0 40 26 78q-20 57 -26 57q-38 0 -83 51q-26 35 -26 76v7q0 89 96 125q20 2 20 10l21 49q-28 34 -28 82q0 70 70 114q32 18 66 18q43 0 78 -28l56 24
q0 44 57 92q36 21 71 21zM455 925v-1q9 3 40 3h31l38 -2q-19 30 -55 30q-31 0 -54 -30zM177 766h2q35 43 76 76v2h-14q-45 0 -64 -54v-24zM764 844q75 -68 76 -80h2l2 14q-11 66 -64 66h-16zM368 561v-2q0 -100 97 -154l44 -9l15 2v-4l-29 -2h-4q-111 0 -163 119
q-9 35 -9 53l6 42v2h-2l-17 -47q0 -102 100 -158q39 -16 70 -16h7q18 0 47 7l-2 2v2q33 0 73 43h2q-57 -78 -145 -78q-87 0 -144 76v2h-1v-2q11 -35 36 -50q49 -37 104 -37q96 0 151 91q16 32 16 40h3v-4h2v9h-3l3 24q0 74 -78 108l-30 5q-63 0 -102 -50h-2q56 80 143 80h10
q91 0 146 -91h2v2q-24 68 -40 68q-46 38 -108 38q-99 0 -154 -97q-13 -30 -13 -38h-1l-2 1h-2v-1l2 -11l-2 -14q0 -16 11 -48q-26 37 -26 88v2q0 109 111 161l12 4v2h-5q-68 0 -118 -99q-11 -36 -11 -61zM385 545l4 -34h2q0 79 22 107q55 87 153 87l24 -2h2v2l-42 12
q-70 0 -130 -69q-35 -53 -35 -103zM594 703v-1h3v1h-3zM352 573v-12q0 -68 60 -123v1q-54 52 -54 124v5q0 74 62 132h-2q-33 -14 -59 -82q-7 -25 -7 -45zM396 545v-3h2q0 43 57 100q50 42 115 42q40 0 88 -24q-30 33 -85 33h-12q-99 0 -155 -106zM368 667q-36 -35 -36 -94
v-5q0 -110 114 -162l5 -1h2v1q-62 22 -97 87q-16 40 -16 70v8q0 50 30 96h-2zM484 630v-1h2q27 10 54 10h14q83 0 141 -82q24 -46 24 -66h2v23q0 33 -54 90q-55 40 -108 40h-9q-27 0 -66 -14zM511 630v-1q98 0 142 -53q50 -53 50 -119l-3 -33v-2h2l8 26v17q0 93 -99 151
q-44 16 -73 16zM502 629v-2h7v2h-7zM575 615v-2q57 -22 87 -78q20 -37 20 -84q0 -46 -26 -90h2q33 30 33 90q0 113 -115 164h-1zM587 601q69 -58 69 -141q0 -93 -86 -149h-2v-2h2q55 20 55 30q45 49 45 114v2q0 90 -81 146h-2zM66 509q0 -32 30 -52l-2 38v31q0 31 3 40h-1
q-30 -22 -30 -57zM924 566l3 -54v-3l-3 -54q31 23 31 56t-31 55zM625 547v-2l2 -5h2v2l-2 5h-2zM629 538v-1q8 -20 12 -61q0 -107 -108 -162q-28 -10 -43 -10l3 -4h23q33 0 88 54q42 53 42 113q0 31 -16 71h-1zM300 514v-19q15 -58 70 -92q43 -30 92 -30q33 0 76 18v1h-1
q-34 -13 -66 -13q-108 0 -162 109l-7 26h-2zM630 502q0 -136 -135 -179l-40 -4l-40 6h-2v-2q28 -12 44 -12q115 0 165 114q10 30 10 54v23h-2zM622 478q-17 -66 -56 -94q-51 -44 -113 -44q-51 0 -99 32v-2q32 -38 97 -38h7q96 0 153 100l12 42v4h-1zM406 462l4 -4v-3l-4 3v4
zM412 453h1v-3h-1v3zM455 405v-2h3v2h-3zM177 257v-16q0 -43 50 -62l21 -2l9 2v2q-12 1 -80 76zM764 179l9 -2h3q68 10 68 68v3l-2 9q-35 -43 -78 -78zM455 97q22 -31 56 -31q32 0 55 31l-54 -3h-3z" />
    <glyph glyph-name="X" unicode="X" horiz-adv-x="1093" 
d="M505 1017h7q87 0 124 -97q0 -22 21 -22q33 -16 38 -16q38 26 80 26q86 0 126 -93q5 -18 5 -37v-7q0 -40 -26 -77q11 -19 23 -54q31 0 78 -38q36 -43 36 -95q0 -84 -88 -123q-28 -7 -28 -12l-21 -50q26 -35 26 -71v-16q0 -73 -83 -116q-24 -8 -41 -8h-16q-32 0 -74 26
q38 19 92 71q79 96 79 202v15q0 142 -126 244q-85 61 -178 61h-28l-21 -2v4l45 3h21q137 0 242 -126q61 -89 61 -187q0 -142 -118 -244l9 -2h3q68 10 68 68l-2 14q72 112 72 207v7q0 145 -122 246q-88 64 -182 64h-14q-150 0 -254 -137v4q100 155 272 155h1q164 0 268 -154
q42 -78 42 -148v-32l-2 -17q31 23 31 56q0 31 -33 58q-9 64 -53 128q-104 130 -254 130t-255 -131q-43 -64 -55 -139v-7h2q3 40 31 87q104 129 249 129h12q155 0 258 -143q50 -83 50 -168q0 -55 -23 -116h-1v2q15 53 15 97q0 155 -138 259q-87 54 -175 54q-102 0 -190 -66
q21 14 31 16l2 -21q0 -62 -68 -83l-17 -2l-22 2l-4 -14q40 -26 40 -66v-13q0 -39 -40 -64v-2l4 -14l12 2h17q50 0 74 -61q4 -8 4 -22v-2l-2 -21l14 -5q25 42 74 42q40 0 73 -42l12 5l-2 12v16q0 57 71 78h23l12 -2l5 14q-42 27 -42 74t44 71l7 -21h1l-1 -1l1 -21v-4
q-8 -11 -8 -22v-5q0 -13 10 -26v-2q0 -103 -93 -204q-95 -88 -222 -88q-147 0 -249 128q-27 38 -36 66h-2v-4q-41 0 -88 52q-26 35 -26 76v7q0 88 95 124q21 3 21 11l21 48q-28 35 -28 80q0 88 95 128l40 5q43 0 78 -28l55 25q0 43 57 91q36 21 71 21zM453 922v-2q9 4 40 4
h31l38 -2q-19 29 -55 29q-30 0 -54 -29zM176 763h2q35 42 76 76v2h-14q-45 0 -64 -54v-24zM761 841q75 -68 76 -80h2l2 14q-11 66 -64 66h-16zM500 730h5v-4h-5v4zM529 725q157 0 256 -130q59 -84 59 -176v-16q0 -137 -121 -239q-56 -39 -69 -39v-2h2l6 2q0 -4 -10 -6
q-16 -3 -16 -24q-38 -95 -129 -95t-128 100q0 18 -14 18l-42 19q-37 -26 -77 -26h-7q-88 0 -125 97l-5 36q0 40 26 78l-4 14q103 -168 282 -168q149 0 251 129q59 86 59 179v12q0 26 -7 60h4q13 -57 13 -95q0 -159 -147 -264q-81 -47 -162 -47h-9q-134 0 -239 114v-16
q0 -53 66 -64l19 2q76 -52 173 -52q153 0 254 133q57 84 57 182q0 102 -65 189l19 -33q-7 -4 -19 -4h-4q-61 0 -83 69v26l2 12q45 -8 112 -89q59 -89 59 -184q0 -164 -149 -266q-76 -47 -160 -47h-4q-66 0 -121 24h-2v-1q72 -33 142 -33q151 0 256 135q56 88 56 178
q0 155 -137 259h3q97 -51 144 -188q9 -40 10 -82q0 -154 -136 -257q-87 -56 -173 -56l-42 4q22 -31 56 -31q29 0 57 31q61 15 91 31q166 101 166 278q0 172 -161 274q-65 30 -103 34h-4v-1q26 -4 26 -7q-27 -42 -66 -42h-13q-40 0 -68 42v1q40 18 95 18zM483 714
q14 -8 29 -8q11 0 24 12h-50zM545 716v-2h8v2h-8zM638 681h4v-1h-4v1zM342 636h4q35 11 35 39q-22 -16 -39 -39zM636 673q0 -28 40 -38v1l-38 37h-2zM339 645v-2l-3 -3v2zM334 640h2v-4h-2v4zM66 507q0 -32 29 -52l-2 43v26q0 31 4 40h-2q-29 -22 -29 -57zM299 545v-7h2v7
h-2zM299 534v-48l4 -3q8 16 8 26q0 15 -10 25h-2zM112 386v-4h2v4h-2zM344 381v-2q13 -18 35 -35h2v2q0 25 -37 35zM636 348v-4q6 0 37 37h-4q-22 0 -33 -33zM481 303v-2l21 -2h15l17 2q-6 10 -27 10h-2q-8 0 -24 -8zM671 128l-3 -3h-6v1z" />
    <glyph glyph-name="Y" unicode="Y" horiz-adv-x="1100" 
d="M508 1023h7q88 0 125 -97l4 -20h-2q-37 11 -78 11q-161 0 -265 -145q-50 -84 -50 -170q0 -155 137 -261l21 -12h2v2q-30 13 -30 31q-16 21 -35 22q-20 34 -20 41v1h24l26 -5v4q0 34 45 41h7q-6 18 -8 18q0 -10 -32 -18h-8q-13 0 -28 12h-2q0 -14 -31 -38q-13 19 -25 77
l-1 35v22q0 126 109 228q92 75 197 75h19q109 0 207 -87q19 -21 19 -24h2l2 13q-11 67 -65 67h-15l3 -6h-2q-82 53 -169 53h-15q-141 0 -245 -129q-61 -89 -61 -186q0 -66 34 -145q-45 74 -45 159q0 162 146 266q80 48 160 48h20q59 0 120 -27h1v1q-12 4 -12 7q34 26 78 26
q87 0 127 -94q6 -18 6 -36v-7q0 -41 -26 -78q10 -19 22 -54q32 0 78 -39q37 -43 37 -95q0 -91 -101 -129q-16 0 -16 -9h-3q12 41 12 84v7q0 137 -113 238q-90 73 -204 73q-159 0 -262 -144l-5 -9v-2h1q11 25 28 25q18 11 26 36l35 21q5 -1 5 -14v-5q0 -19 -7 -33
q34 0 46 -33l1 -19l18 7v1q-12 0 -19 35q0 12 12 35h-2q-21 9 -37 33q63 28 126 28q168 0 273 -157q42 -78 42 -153v-14q0 -132 -113 -233l8 -2h4q68 10 68 68v4l-4 12q52 77 52 169v7q0 159 -148 264q-83 47 -167 47q-65 0 -142 -33q68 42 155 42q161 0 264 -145
q50 -83 50 -170q0 -64 -27 -127v-2h1l4 11h2q26 -35 26 -72v-15q0 -74 -84 -117q-24 -9 -42 -9h-15q-35 0 -73 26l-54 -22q0 -34 -44 -82q-40 -33 -90 -33q-95 0 -131 106v7l2 2q41 -11 68 -11h28q134 0 240 124q62 90 62 186v4q0 167 -147 267h-2q9 -6 17 -29
q16 -15 33 -17l21 -39l-14 -3h-7l-31 5v-2q0 -35 -47 -43h-5v-2l5 -14h2q18 17 36 17q17 0 33 -13q12 28 35 40q26 -58 26 -122v-2q0 -167 -149 -270q-81 -45 -154 -45h-24q-125 0 -230 111v-15q0 -44 51 -63l21 -2l10 4q84 -51 162 -51h21q127 0 230 110q74 93 74 198v13
q0 91 -57 175h2q71 -86 71 -195v-6q0 -163 -151 -267q-78 -45 -164 -45q-62 0 -127 26l2 -2v-1q-35 -25 -75 -25h-7q-88 0 -125 98l-5 36q0 40 26 79q-21 57 -26 57q-39 0 -84 50q-26 36 -26 77v7q0 89 96 125l17 4l2 -2q-11 -37 -11 -75v-17q0 -139 127 -244
q88 -61 183 -61h9q157 0 259 143l7 10v2h-2q-8 -19 -22 -19q-25 -14 -25 -35q-26 -24 -42 -24l-1 10v16l5 26h-2q-37 0 -43 47v5h-2l-16 -5q18 -18 18 -33v-10q0 -13 -12 -28q23 -9 41 -37q-59 -26 -115 -26h-24q-142 0 -249 136q-54 84 -54 179q0 137 112 242v2h-14
q-45 0 -65 -54v-25h2l12 12v-1q-62 -88 -62 -190q0 -171 160 -275q79 -40 155 -40q63 0 142 33q-68 -43 -158 -43h-3q-168 0 -272 160q-40 77 -40 155q0 61 26 125l-2 -2h-3q-24 40 -24 78q0 89 95 129l40 5q43 0 79 -27l55 24q0 44 58 92q36 21 71 21zM456 927v-1q9 3 40 3
h26l43 -2q-19 30 -55 30q-31 0 -54 -30zM207 800h2v-3h-2v3zM198 788v-2l-5 -5v2zM485 719q14 -9 30 -9q22 5 23 10l-2 2h-47zM583 708q-22 -33 -38 -33v-2q12 -15 12 -28v-8q0 -16 -18 -33l18 -7q0 37 28 48l13 4h4l-5 26v17l1 13l-13 3h-2zM489 639q0 -14 21 -21
q24 4 24 24q-5 21 -21 21h-5q-17 0 -19 -24zM397 602q6 -21 21 -21h1q23 2 23 23v1q0 15 -21 21q-24 -4 -24 -24zM579 602q6 -21 21 -21h2q23 2 23 23v1q-5 21 -21 21q-25 -4 -25 -24zM341 597l-23 1l-3 -13q25 -17 35 -39q19 12 31 12q37 -6 37 -19h1l7 18q-41 0 -52 36v11
q-14 -7 -33 -7zM66 510q0 -29 28 -52h2l-2 43v26q0 31 3 40h-1q-30 -22 -30 -57zM926 567l3 -54v-3l-3 -54q31 23 31 56t-31 55zM463 512q8 -47 47 -47h5q43 8 43 43v4q-6 48 -48 48q-38 0 -47 -48zM719 539q-9 -16 -9 -24v-2q0 -22 10 -28l2 18v15l-2 21h-1zM303 538l-2 -2
v-47l3 -4q9 17 9 27q0 15 -10 26zM360 515v-3q2 -23 23 -23q22 6 22 23q0 19 -26 22q-19 -5 -19 -19zM618 508q8 -19 24 -19q21 4 21 24q-4 21 -21 21h-3q-21 0 -21 -26zM602 484l-5 -18h5q47 -5 47 -45l26 5h16l12 -1l5 13q-17 9 -36 40q-12 -12 -27 -12h-10q-15 0 -33 18z
M397 421q4 -23 21 -23h1q23 2 23 23v2q0 15 -21 21q-24 -5 -24 -23zM579 419q6 -21 21 -21h5q15 0 20 20v5q0 15 -21 21q-25 -5 -25 -25zM466 426v-1q0 -33 -26 -46l-19 -7q5 -16 5 -29v-2l-1 -21l13 -5q12 23 40 35q-13 16 -13 33q0 18 17 36v2zM489 384v-3q4 -21 21 -21
q24 0 24 24q-7 21 -22 21q-23 -3 -23 -21zM484 304v-1l21 -2h15l18 2q0 6 -25 10h-5q-8 0 -24 -9zM252 184h4v-1h-4v1zM456 97q22 -31 56 -31q32 0 55 31l-54 -3h-3z" />
    <glyph glyph-name="Z" unicode="Z" horiz-adv-x="1100" 
d="M500 1021h21q226 0 391 -195q109 -142 109 -313v-2q0 -260 -228 -427q-132 -84 -287 -84q-234 0 -397 195q-109 142 -109 305v21q0 228 197 393q143 107 303 107zM43 578v-2q0 -137 113 -254q116 -105 256 -105q60 0 137 27v2l-14 -2h-37q-130 0 -221 133q-45 95 -64 154
q-8 48 -8 78v16q0 191 182 314q75 39 121 43v2h-8q-186 0 -342 -156q-106 -131 -115 -250zM226 605q0 -37 14 -103h2q0 173 158 252q118 66 207 66h12q206 0 324 -189q37 -71 37 -96h2v10q0 97 -78 230q-91 122 -191 162q-83 39 -125 39h-2q-164 0 -289 -150
q-71 -107 -71 -221zM486 779v-2h2l18 2q170 0 257 -170q61 -92 61 -191v-28q0 -169 -160 -294q-78 -48 -141 -57v-2h2q122 0 258 86q131 94 181 254q14 48 14 68q0 117 -96 234q-122 121 -273 121q-47 0 -123 -21zM392 515v-11q0 -65 71 -102q20 -10 50 -10q80 0 112 90
l4 29q0 82 -88 114l-28 4h-7q-77 0 -110 -86zM513 617q71 0 100 -80l4 -26q0 -74 -84 -105l-25 -2q-70 0 -100 78l-4 31q0 73 84 102zM457 508q0 -36 47 -51h4q56 10 56 54t-56 53q-43 0 -51 -56zM775 556l2 -31v-27q0 -123 -119 -211q-129 -76 -156 -76q-43 -14 -96 -14
h-10q-190 0 -310 174q-45 79 -45 109h-2v-11q0 -81 68 -207q24 -42 90 -106q103 -87 217 -109l21 -2h2q191 0 313 178q54 93 54 193q0 64 -27 140h-2zM502 554h17q35 -11 35 -35v-17q0 -26 -39 -35h-9q-28 0 -39 37v11q9 39 35 39zM490 513q0 -23 18 -23h5q18 3 18 18v5
q-3 18 -18 18h-5q-18 -3 -18 -18zM37 486v-4h2v4h-2z" />
    <glyph glyph-name="a" unicode="a" 
d="M584 1019q100 0 175 -44h-5q-75 31 -151 31q-172 0 -299 -140q-94 -115 -94 -254v-4q0 -193 170 -324h-4q-190 129 -190 339q0 193 166 321q105 75 232 75zM630 839q192 0 321 -166q74 -104 74 -231q0 -102 -46 -182v4q33 78 33 156q0 215 -201 345q-96 50 -195 50
q-194 0 -325 -170v4q130 190 339 190zM44 745v-4q-31 -74 -31 -151q0 -202 186 -334q102 -59 205 -59h9q190 0 321 170v-4q-128 -190 -338 -190q-215 0 -346 201q-50 94 -50 199q0 98 44 172zM651 737h5v-3h-5v3zM658 732h4q186 -127 186 -336v-5q0 -202 -186 -332
q-100 -59 -205 -59h-9q-98 0 -173 44h5q73 -31 151 -31q207 0 336 188q59 106 59 206q0 191 -168 325z" />
    <glyph glyph-name="b" unicode="b" horiz-adv-x="1100" 
d="M588 1025q101 0 176 -44h-5q-76 31 -152 31q-173 0 -301 -141q-95 -115 -95 -255v-4q0 -110 64 -216h2v2q-53 97 -53 196q0 194 168 326q112 75 233 75q178 0 306 -146v-2q-127 126 -288 126q-224 0 -353 -207q-48 -96 -48 -192q0 -123 77 -233l64 -55h-5
q-191 130 -191 341q0 194 167 324q106 74 234 74zM180 922h3l-7 -7h-2zM167 911h2q-118 -128 -118 -279v-16q0 -147 116 -273q127 -116 280 -116q123 0 237 79l55 64v-5q-129 -191 -341 -191q-216 0 -347 202q-51 95 -51 201q0 99 44 173v-4q-31 -74 -31 -152
q0 -204 187 -337q103 -59 207 -59h9q108 0 213 64v2h-2q-93 -53 -191 -53h-16q-202 0 -334 192q-57 103 -57 207q0 174 138 301zM634 845q193 0 323 -167q75 -105 75 -234q0 -102 -46 -182v4q33 78 33 156q0 217 -203 348q-97 51 -195 51q-97 0 -196 -51v-2h4q79 40 165 40
h18q185 0 314 -165q75 -106 75 -234v-4q0 -175 -143 -302h-2q125 130 125 291q0 197 -176 330q-112 68 -222 68q-116 0 -224 -70q-37 -34 -66 -73v5q131 191 341 191zM414 764v-3h4v3h-4zM656 742h4v-3h-4v3zM662 737h5q187 -128 187 -339v-4q0 -203 -187 -335
q-101 -59 -207 -59h-9q-99 0 -174 44h5q73 -31 151 -31q209 0 339 189q60 107 60 207q0 104 -60 212h-2v-3q46 -88 46 -180v-16q0 -192 -176 -323q-104 -66 -207 -66h-30q-166 0 -295 147v3q126 -130 297 -130q191 0 321 167q75 112 75 229q0 121 -75 231z" />
    <glyph glyph-name="c" unicode="c" horiz-adv-x="1017" 
d="M492 1025h31q163 0 290 -143v-3q-125 126 -292 126q-193 0 -323 -170q-73 -107 -73 -230q0 -38 14 -99h2v2l-7 70q0 202 183 334q107 64 215 64q209 0 339 -187q29 -45 39 -85l-35 66q-133 180 -332 180h-4q-194 0 -324 -169q-72 -107 -72 -231q0 -90 46 -159v-2
q-81 109 -81 238q0 210 193 343q100 55 191 55zM541 928q226 0 356 -213q44 -93 44 -179v-15h-4q0 158 -143 290q-120 90 -255 90q-177 0 -306 -147q-59 -81 -59 -101l2 -2q-9 0 -24 -73v-2h-5q8 80 64 176q135 176 330 176zM523 862q210 0 341 -189q59 -99 59 -211
q0 -102 -46 -183v5q33 77 33 156q0 209 -191 341q-101 57 -207 57q-96 0 -195 -51v-2h4q79 39 165 39h17q185 0 315 -164q75 -106 75 -233q0 -182 -143 -306h-2q125 129 125 290q0 197 -176 330q-112 68 -222 68q-65 -4 -110 -15v-3h4q38 9 80 9h11q211 0 342 -202
q51 -100 51 -196q0 -191 -163 -321q-83 -55 -107 -55l57 31q187 131 187 334v7q0 204 -187 334q-91 49 -117 49h-2v-3q145 -47 218 -158q66 -107 66 -207v-30q0 -160 -139 -288q-116 -95 -244 -95h-13v4q126 0 255 115q114 126 114 268v26q0 165 -149 299l-64 40h-2v-2
q104 -57 165 -214q17 -59 17 -120v-5q0 -203 -187 -334q-100 -59 -206 -59h-9q-99 0 -174 44h5q73 -31 151 -31q208 0 339 189q59 106 59 207q0 103 -59 211h-2v-3q46 -88 46 -180v-15q0 -193 -176 -323q-104 -66 -207 -66h-30q-166 0 -295 147v2q126 -130 297 -130
q191 0 321 167q75 112 75 229q0 118 -73 229q-78 78 -117 81q-38 15 -65 15h-14q-154 0 -233 -118l-6 -7v5q66 117 231 175q39 11 107 16zM358 791v-2h5v2h-5zM506 785v-2h4v2h-4zM514 783v-2h5v2h-5zM306 781v-3h4v3h-4zM141 501v-4h2v4h-2zM191 387h2v-4h-2v4z" />
    <glyph glyph-name="d" unicode="d" 
d="M511 1023h12v-4h-4q-132 0 -261 -123q-99 -122 -99 -258q0 -170 140 -295l34 -25h2q-161 127 -161 305v21q0 176 163 303q104 68 199 68h36q86 0 163 -45h-4q-72 32 -144 32h-21q-147 0 -269 -123q-102 -116 -102 -258q0 -193 169 -318q75 -45 140 -45l64 7v-4
q-54 -11 -98 -11q-193 0 -320 176q-59 98 -59 197v25q0 163 146 288q89 62 117 62l-64 -34q-176 -127 -176 -322q0 -207 191 -333q75 -37 123 -44h4v2q-51 0 -161 78q-135 125 -135 280v30q0 153 133 277q112 91 242 91zM597 989h13q65 0 134 -25v2q71 -31 144 -100l10 -14
v-3q-124 121 -279 121q-191 0 -318 -169q-66 -106 -66 -214q0 -32 13 -98h2v5l-4 48v30q0 178 171 307q101 62 204 62h19q184 0 313 -176q38 -71 38 -85l-40 72q-127 165 -316 165q-191 0 -317 -169q-66 -106 -66 -214q0 -58 21 -115q22 -33 24 -42q-77 102 -77 216v26
q0 173 161 300q104 70 216 70zM178 900h2q-121 -120 -121 -281q0 -200 185 -327q99 -55 199 -55q58 0 131 24l-2 2v4h4v-4h4l-2 2v2q58 10 117 72l29 36v-2q-122 -187 -330 -187q-209 0 -335 195q-48 96 -48 189q0 87 42 178h4v-2q-34 -80 -34 -155q0 -144 106 -263
q121 -118 265 -118h25q104 0 202 65q-99 -55 -197 -55q-179 0 -303 149q-81 110 -81 216v36q0 156 138 279zM625 894h23q184 0 312 -172q61 -101 61 -197v-14h-4v2q0 116 -104 239q-124 116 -265 116h-25q-156 0 -282 -137q-57 -67 -78 -165h-5v2q7 82 83 188
q128 138 284 138zM612 830h19q170 0 295 -150q78 -106 78 -227v-12q0 -93 -42 -166v5q29 69 29 144v4q0 186 -163 311q-106 70 -218 70q-94 0 -193 -51v-2h2q83 40 170 40q191 0 313 -158q72 -104 72 -216v-22q0 -162 -142 -286h-2q125 123 125 282q0 211 -197 337
q-93 47 -180 47h-12q-42 0 -96 -13v-2h4q38 8 79 8q189 0 313 -163q70 -101 70 -222q0 -187 -161 -312q-85 -53 -106 -53v5q64 14 153 108q89 112 89 235v19q0 155 -125 275q-75 66 -161 87h-2v-2q133 -44 201 -148q68 -103 68 -219q0 -172 -142 -296q-103 -87 -261 -87h-2
v4h2q145 0 263 110q114 121 114 272q0 194 -173 321l-38 22h-3v-2q109 -63 159 -197q21 -58 21 -119v-21q0 -170 -152 -295q-104 -76 -220 -76h-24q-86 0 -165 45h4q72 -32 147 -32h12q192 0 320 180q57 101 57 203q0 98 -57 201h-2v-2q44 -85 44 -167v-28q0 -167 -154 -296
q-109 -74 -229 -74q-176 0 -299 144v2q124 -125 274 -125h21q169 0 298 155q75 112 75 228l-7 70h-2v-2l2 -34v-21q0 -201 -195 -328q-96 -49 -188 -49q-182 0 -307 155q-44 61 -55 106l36 -66q126 -170 320 -170q203 0 326 185q55 96 55 180l-2 12l2 24q0 94 -70 171
q-79 79 -170 79l-67 -7v5h-5l3 -3v-2q-98 -25 -140 -84l-24 -28v2q65 117 229 172q53 10 89 10zM462 765v-2h6v2h-6zM608 756v-2h4v2h-4zM614 754v-2h7v2h-7zM290 644h2v-4h-2v4zM256 561h5v-6h-5v6zM771 534v-7h2v7h-2zM0 525h4v-4q0 -123 110 -248q124 -110 261 -110h21
q178 0 307 167q52 91 57 144h5q-8 -88 -79 -190q-127 -146 -290 -146h-25q-180 0 -310 171q-61 102 -61 204v12zM250 487v-6h2v6h-2zM299 375h2v-4h-2v4zM434 265v-2h7v2h-7z" />
    <glyph glyph-name="e" unicode="e" 
d="M504 1021h11q80 0 129 -81l14 -35l28 -10h1q38 22 76 22q81 0 131 -74q21 -37 21 -80q0 -37 -21 -76q8 -31 20 -31q58 -20 89 -73q18 -40 18 -72q0 -93 -96 -141q-23 -3 -23 -16q-4 -4 -8 -19q21 -37 21 -81q0 -95 -104 -142q-32 -6 -48 -6q-37 0 -79 21q-28 -10 -28 -15
q-5 -30 -43 -72q-51 -40 -102 -40q-100 0 -146 106q0 14 -28 20l-2 1h-1q-37 -21 -81 -21q-91 0 -139 97q-8 26 -10 53q0 41 22 78v1q-8 33 -25 33q-26 5 -70 48q-31 46 -31 90v11q0 89 99 137q20 0 25 28l2 5q-22 41 -22 78q0 99 106 145l46 7q33 0 81 -22q30 9 30 25
q21 56 72 84q33 17 65 17zM330 866q-31 24 -66 24h-16q-66 0 -106 -71q-10 -19 -13 -54q0 -39 26 -76q-20 -51 -24 -53q-55 -14 -75 -41q-31 -36 -31 -83v-6q0 -69 74 -111q36 -8 36 -15l20 -48q-26 -34 -26 -74q0 -75 74 -116q30 -11 53 -11q39 0 74 24h2q51 -18 53 -23
q0 -31 43 -77q41 -29 74 -29h12q80 0 115 86q5 27 17 27l41 16h2q36 -24 76 -24q80 0 119 85q6 26 6 42q0 37 -24 74v2q19 53 24 53q31 0 78 44q27 38 27 76v12q0 66 -73 107q-38 10 -38 17l-18 46v2q24 35 24 74q0 78 -79 117q-21 8 -43 8h-13q-33 0 -68 -24l-51 21
q-13 57 -46 81q-38 28 -75 28h-6q-87 0 -121 -92q0 -21 -28 -25q-1 -3 -30 -13zM502 933h12q27 0 49 -28l-1 -1q-16 3 -45 3h-15q-28 0 -44 -3v3q22 26 44 26zM259 829l9 -1v-2q-38 -32 -73 -73h-2l-1 10q0 47 49 65zM762 829q46 0 64 -48l2 -18v-6l-4 -4q-30 39 -72 73v2z
M511 712l24 -2v-1q-9 -10 -26 -10q-16 0 -23 10v1zM441 699q3 -12 38 -37q-13 -11 -13 -28q2 -20 16 -34v-4l-14 -5q0 40 -37 48l-6 2l-2 2v1l7 28l-4 20q10 7 15 7zM582 699l11 -7l-2 -16v-5q0 -13 5 -28q-20 0 -39 -27l-5 -25l-15 5v4q16 16 16 34q0 10 -11 32q15 5 40 33
zM387 669l1 -2v-1q-11 -33 -33 -33l-3 3zM631 669h2q22 -17 34 -35v-1q-36 7 -36 36zM509 656q23 -3 23 -23q-5 -22 -21 -22q-21 0 -24 25q7 20 22 20zM421 620h4q19 -5 19 -19v-6q0 -14 -18 -18h-6q-14 0 -19 19v4q4 20 20 20zM595 620h1q22 -3 22 -19v-6q0 -14 -18 -18h-7
q-14 0 -18 19v4q4 20 20 20zM378 598q9 -45 52 -45l-5 -14h-4q-13 13 -33 16q-16 0 -31 -13q-9 19 -35 40l7 13l20 -4zM643 598l28 -7l21 4l5 -15q-23 -13 -31 -36q-27 11 -33 11q-16 0 -35 -16l-8 14q35 0 48 30q1 15 5 15zM114 563h3q-3 -16 -3 -44v-15q0 -29 3 -45l-1 -1
h-2q-26 24 -26 49v12q0 22 26 44zM904 563h1q28 -21 28 -52t-28 -52h-1l3 53zM511 557h3q19 0 36 -23q5 -9 5 -17v-11q-10 -40 -40 -40h-11q-30 0 -40 41v4q6 46 47 46zM311 535h1q10 -6 10 -24q0 -15 -10 -25h-1l-2 28zM707 535h2l1 -11v-22l-1 -16h-4q-8 16 -8 26
q0 13 10 23zM387 534q20 0 23 -25q-7 -20 -22 -20q-23 3 -23 23q6 22 22 22zM489 512q2 -21 22 -21h1q14 0 18 18v2q-2 21 -19 21h-2q-20 -4 -20 -20zM634 534q20 -8 20 -20v-5q0 -17 -23 -20q-20 4 -20 20v5q0 16 23 20zM421 484h4l5 -15q-50 -7 -50 -43l-2 -1l-26 5h-7
l-16 -2l-7 13q22 16 35 38q17 -11 31 -11q16 0 33 16zM598 484q16 -16 36 -16q14 0 28 11h4q0 -11 31 -40l-5 -11l-16 2h-9l-26 -5q-9 44 -51 44zM421 446h4q19 -4 19 -18v-7q0 -13 -18 -18h-6q-16 0 -19 22v1q4 20 20 20zM595 446h3q20 -4 20 -18v-7q0 -13 -18 -18h-7
q-14 0 -18 20v3q4 20 20 20zM468 431l14 -8q-13 -13 -16 -33q0 -8 11 -35q-14 -2 -38 -31h-1l-12 5l4 20l-7 31q24 0 40 26zM552 431q0 -36 34 -49q10 0 10 -4l-5 -24v-9l2 -16l-15 -5q-21 31 -36 31v4q11 14 11 31q0 16 -16 33zM507 410h5q18 0 20 -23q-5 -20 -20 -20h-5
q-15 0 -20 23q6 20 20 20zM352 390q36 -8 36 -36h-1q-18 11 -35 34v2zM667 390v-2q0 -5 -34 -34h-2q10 36 36 36zM512 324l23 -8v-4l-16 -1h-22l-11 1v2q9 10 26 10zM193 269h2q33 -40 73 -72l-4 -4h-6q-54 0 -66 60v8zM823 269h1l4 -3v-7q0 -50 -55 -66h-18l-3 4v1
q41 29 71 71zM458 117l53 -3l51 3v-1q-21 -28 -53 -28q-29 0 -51 28v1z" />
    <glyph glyph-name="f" unicode="f" horiz-adv-x="1104" 
d="M503 1019h11q80 0 129 -81l13 -34l28 -10h2q37 21 76 21q80 0 130 -74q21 -36 21 -79q0 -38 -21 -76q9 -33 23 -33q55 -18 86 -71q18 -40 18 -71q0 -94 -96 -142q-23 -3 -23 -16q-4 -4 -8 -18q21 -37 21 -81q0 -95 -103 -142q-33 -6 -48 -6q-38 0 -79 21q-28 -10 -28 -15
q-6 -30 -43 -72q-51 -40 -102 -40q-100 0 -146 106q0 13 -28 19l-1 2h-2q-37 -21 -79 -21q-93 0 -140 97q-8 25 -10 53q0 40 21 77v2q-7 33 -24 33q-26 4 -70 48q-31 46 -31 89v11q0 89 99 137q19 0 25 28l1 5q-21 41 -21 77q0 91 91 139q32 13 61 13q32 0 80 -21
q30 8 30 24q21 56 73 85q32 16 64 16zM330 864q-30 25 -66 25h-17q-70 0 -110 -81q-7 -24 -7 -36v-17q0 -33 25 -67q-21 -51 -25 -53q-38 -5 -74 -41q-31 -36 -31 -83v-6q0 -69 74 -111q36 -8 36 -15l20 -48q-25 -31 -25 -66v-6l-1 -2l1 -1v-9q0 -61 71 -105q34 -12 55 -12
q39 0 74 25h1q52 -19 53 -23q0 -31 43 -78q41 -28 74 -28h17q52 0 94 53q15 19 23 56l51 20h2q36 -25 75 -25q80 0 119 86q7 26 7 41q0 38 -25 74v2q19 53 25 53q31 2 72 39q32 40 32 76v17q0 66 -73 107q-38 10 -38 16l-18 47v1q25 36 25 74q0 78 -79 117q-22 9 -43 9h-13
q-33 0 -68 -25l-51 21q-5 40 -45 81q-41 28 -76 28h-6q-87 0 -121 -92q0 -21 -28 -25q0 -2 -29 -13zM501 932h12q27 0 49 -28l-1 -2q-16 3 -45 3h-15q-28 0 -44 -3v3q22 27 44 27zM259 828l8 -2v-2q-38 -32 -72 -72h-2l-2 10q0 46 50 64zM760 828q46 0 64 -48l2 -18v-7
l-3 -3q-31 38 -73 72v2zM510 711l24 -2v-2q-9 -10 -26 -10q-16 0 -23 10v2zM440 697q24 -39 70 -39q39 0 70 39l12 -6l-2 -17v-5q0 -57 66 -77l13 -2l22 4l5 -15q-40 -26 -40 -69q0 -39 40 -71l-5 -12l-17 2h-8q-51 0 -74 -61l-2 -15v-8l2 -17l-13 -5q-29 40 -71 40
q-39 0 -69 -40h-2l-12 5l4 22q-14 79 -79 79h-5l-17 -2l-6 13q39 27 39 70q0 42 -39 70l6 14l20 -4q54 0 77 61l4 20l-4 20q10 6 15 6zM386 668l1 -2v-2q-10 -32 -32 -32l-4 3zM633 668q33 -31 33 -35v-1q-36 8 -36 34l2 2h1zM450 650q0 -33 -51 -71l-30 -12q17 -26 17 -53
v-8q0 -27 -17 -53v-1q26 0 61 -38q11 -11 22 -43q28 16 58 16q25 0 57 -16v2q18 52 53 69l28 11q-16 28 -16 58q0 25 16 58h-2q-21 0 -59 36q-17 28 -20 45h-1q-26 -17 -53 -17h-8q-27 0 -53 17h-2zM114 562h3q-3 -16 -3 -44v-15q0 -29 3 -45l-2 -1h-1q-27 24 -27 49v12
q0 22 27 44zM902 562h2q28 -21 28 -52t-28 -52h-2l3 53zM310 534h2q10 -6 10 -24q0 -15 -10 -25h-2l-2 28zM706 534h1l2 -11v-22l-2 -16h-3q-8 17 -8 25q0 14 10 24zM355 389q32 -10 32 -36h-1q-17 11 -35 34l2 2h2zM666 389v-2q0 -5 -34 -34h-2v2q0 24 36 34zM511 323
l23 -8v-3l-16 -2h-22l-11 2v1q9 10 26 10zM193 269h2q34 -42 72 -73l-3 -3h-7q-53 0 -66 59v9zM821 269h2l3 -4v-9q0 -46 -51 -61l-15 -2h-6l-4 3v2q42 29 71 71zM457 117l53 -3l51 3v-2q-21 -28 -53 -28q-29 0 -51 28v2z" />
    <glyph glyph-name="g" unicode="g" horiz-adv-x="1104" 
d="M502 1017h11q80 0 129 -81l13 -34l28 -10h2q37 21 75 21q80 0 130 -74q22 -36 22 -79q0 -37 -22 -75q9 -33 23 -33q55 -18 86 -71q18 -40 18 -71q0 -94 -95 -141q-23 -3 -23 -17q-5 -3 -9 -18q22 -37 22 -81q0 -95 -104 -141q-32 -7 -48 -7q-37 0 -79 22q-29 -10 -29 -18
q-14 -50 -56 -81q-46 -28 -87 -28q-92 0 -139 91q-8 26 -13 26l-25 10q-37 -22 -79 -22q-92 0 -139 97q-9 26 -10 53q0 40 21 77v2q-7 33 -25 33q-25 5 -69 48q-31 46 -31 89v11q0 89 99 137q19 0 24 28l2 5q-21 40 -21 77q0 99 105 145l46 6q33 0 81 -21q29 8 29 25
q21 55 73 84q32 16 64 16zM329 862q-33 27 -74 27q-69 0 -110 -66q-15 -29 -15 -53v-16q0 -33 25 -68q-21 -50 -25 -52q-54 -14 -74 -42q-31 -35 -31 -82v-6q0 -68 74 -111q36 -8 36 -15l20 -47q-25 -31 -25 -66v-7l-2 -1l2 -2v-8q0 -62 71 -105q34 -12 54 -12q39 0 74 25h2
q51 -19 52 -23q3 -34 40 -74q41 -32 77 -32h12q80 0 115 86q4 28 21 28l37 15h1q36 -25 76 -25q80 0 118 86q7 25 7 41q0 37 -25 74v1q19 53 25 53q32 2 72 40q32 39 32 75v17q0 65 -73 107q-37 10 -38 15l-18 47v2q25 35 25 74q0 78 -79 117q-16 6 -46 10q-40 0 -77 -27
l-51 22q-6 39 -45 80q-41 28 -76 28h-6q-87 0 -120 -92q0 -20 -28 -25zM500 930h12q27 0 49 -28l-1 -2q-16 3 -45 3h-15q-28 0 -44 -3v3q22 27 44 27zM258 826l9 -2v-1q-40 -33 -73 -73h-1l-2 10q0 47 49 64zM759 826q52 0 65 -57v-15l-3 -4q-33 41 -72 73v1zM509 709
q120 0 182 -120q17 -38 17 -76v-4q0 -120 -119 -183q-42 -17 -77 -17h-8q-114 0 -180 119q-16 44 -16 82q0 117 117 181q42 18 84 18zM332 509q0 -99 98 -157q38 -18 82 -18q82 0 140 76q31 46 31 99v1q0 105 -105 160q-38 15 -73 15q-99 0 -158 -104q-15 -43 -15 -72z
M114 561h3q-3 -16 -3 -44v-15q0 -29 3 -45l-2 -1h-1q-27 24 -27 49v12q0 22 27 44zM900 561h2q28 -22 28 -52q0 -31 -28 -52h-2l3 53zM193 268h1q34 -41 73 -72l-4 -3h-6q-54 0 -66 59v8zM820 268h1l3 -3v-7q0 -51 -52 -64l-13 -1h-7l-3 3v1q41 29 71 71zM456 117l53 -3
l51 3v-2q-21 -28 -53 -28q-29 0 -51 28v2z" />
    <glyph glyph-name="h" unicode="h" horiz-adv-x="1100" 
d="M501 1021h19q55 0 107 -52q63 -16 129 -52q107 0 150 -96q9 -19 13 -73q25 -36 46 -104q0 -17 26 -41q30 -43 30 -87v-11q0 -61 -52 -111q0 -27 -52 -129q0 -116 -111 -155l-58 -8q-26 -20 -104 -46q-17 0 -41 -26q-43 -30 -87 -30h-11q-60 0 -111 52q-29 2 -125 50
q-113 0 -156 104q-7 16 -11 67q-48 88 -50 119q-27 31 -35 48q-17 33 -17 61v19q0 55 52 107q16 63 52 129q0 125 128 159q40 0 59 15q45 24 106 41q48 50 104 50zM275 887l-15 2q-86 0 -123 -89q-5 -23 -5 -44l2 -8q-38 -59 -58 -139q-48 -38 -48 -98q0 -59 48 -101
q4 -34 54 -133l2 -2h2l-2 -15q0 -92 96 -124l34 -4h3l10 2q46 -34 124 -54q9 0 30 -22q37 -30 76 -30h11q52 0 95 48q34 4 133 54l2 2v2l10 -2h1q97 0 128 94l4 38v1l-2 10q26 34 47 96q11 50 24 50q35 42 35 84v11q0 52 -48 95q-4 34 -54 133l-2 2h-2l2 10v3q0 92 -91 125
q-18 5 -42 5l-10 -2q-47 33 -126 56q-10 0 -33 26q-37 24 -76 24q-59 0 -101 -48q-81 -21 -135 -58zM501 735h19q111 0 185 -111q32 -57 32 -113q0 -115 -104 -190q-60 -37 -122 -37q-124 0 -199 119q-26 52 -26 98v19q0 111 111 185q53 30 104 30zM314 518v-15
q0 -102 106 -169q47 -20 81 -20h19q94 0 161 96q26 50 26 91v19q0 97 -100 163q-49 24 -89 24h-15q-106 0 -171 -111q-18 -44 -18 -78z" />
    <glyph glyph-name="i" unicode="i" 
d="M501 1024h22q65 0 149 -23v-5q-28 9 -94 13q-185 0 -311 -158q-75 -105 -75 -217v-24q0 -182 175 -313q73 -43 139 -43h12q54 0 122 32q-103 -79 -220 -79h-23q-188 0 -316 177q-60 98 -60 209q0 209 229 361q127 70 251 70zM599 996q208 0 348 -213q77 -125 77 -265v-15
q0 -63 -21 -145h-5q11 55 11 88q0 210 -198 339q-95 47 -182 47h-17q-183 0 -313 -173q-45 -71 -45 -141v-12q0 -42 23 -107q-64 93 -64 203v21q0 170 156 299q106 74 230 74zM604 811h17q172 0 301 -156q74 -105 74 -230v-5q0 -202 -213 -343q-125 -77 -262 -77h-15
q-76 0 -160 26v4q55 -15 106 -15q187 0 314 164q70 104 70 224q0 205 -192 333q-70 34 -126 34h-12q-42 0 -107 -23q94 64 205 64zM732 651h2v-5h-2v5zM736 644q79 -100 79 -234q0 -146 -109 -265q-119 -117 -271 -117h-17q-209 0 -354 234q-64 118 -64 239v22l6 81h5
l-2 -30q0 -218 202 -344q91 -44 171 -44h28q169 0 300 160q60 77 60 160v12q0 62 -34 122v4z" />
    <glyph glyph-name="j" unicode="j" horiz-adv-x="1100" 
d="M501 1024h22q65 0 149 -23v-5q-28 9 -94 13q-185 0 -311 -158q-75 -105 -75 -217v-24q0 -182 175 -313q73 -43 139 -43h12l56 6q-18 -13 -68 -19q-30 -6 -64 -6q-180 0 -305 151q-79 108 -79 220v6l-3 9l3 8v7q0 160 140 283q148 105 303 105zM599 996q131 0 222 -77h-4
q-96 58 -192 58h-21q-180 0 -310 -166q-66 -105 -66 -212v-19q0 -76 45 -175q-60 91 -60 197v21q0 170 156 299q106 74 230 74zM617 958h25q143 0 265 -117q117 -149 117 -323v-15q0 -63 -21 -145h-5q11 55 11 88q0 210 -198 339q-95 47 -182 47h-17q-183 0 -313 -173
q-45 -71 -45 -141v-23h-4v2q-7 42 -7 70v11q0 200 190 329q98 51 184 51zM823 917h5v-2h-5v2zM604 811h17q172 0 301 -156q74 -105 74 -230v-5q0 -126 -77 -217v2q60 101 60 209q0 168 -136 292q-113 92 -248 92h-4q-81 0 -169 -39h-2q84 52 184 52zM79 787h2v-4h-2v4z
M576 783q207 0 335 -196q49 -94 49 -194q0 -161 -126 -280q-145 -113 -313 -113h-15q-76 0 -160 26v4q55 -15 106 -15q187 0 314 164q70 104 70 224q0 205 -192 333q-70 34 -126 34h-27v4q52 9 85 9zM77 781v-2q-39 -90 -39 -160v-26q0 -164 148 -292q111 -81 236 -81h3
q88 0 187 47q-91 -60 -192 -60h-23q-188 0 -316 177q-60 98 -60 209q0 110 56 188zM480 772h4v-4h-4v4zM755 617q60 -91 60 -207q0 -146 -109 -265q-119 -117 -271 -117h-17q-134 0 -239 96h2q109 -77 226 -77h15q174 0 303 156q75 107 75 234q0 81 -45 180zM6 604h5l-2 -30
q0 -218 202 -344q91 -44 171 -44h28q169 0 300 160q60 77 60 160v12l-4 43h4q15 -67 15 -109q0 -148 -107 -266q-122 -120 -268 -120h-20q-167 0 -292 143q-98 139 -98 292v22zM614 271h5v-2h-5v2zM915 201h2v-5h-2v5zM169 132h2l6 -6h-2z" />
    <glyph glyph-name="k" unicode="k" 
d="M501 1024h20q57 0 130 -17v-4q-31 6 -73 6q-189 0 -313 -164q-71 -101 -71 -224q0 -203 194 -337q65 -30 120 -30h8q63 0 124 34h4q-101 -81 -234 -81q-199 0 -325 177q-62 101 -62 209q0 232 265 382q112 49 213 49zM587 996h30q188 0 334 -219q73 -124 73 -256v-18
q0 -43 -11 -104h-4l2 43v10q0 206 -196 333q-97 49 -190 49q-199 0 -333 -185q-38 -65 -38 -137q0 -44 17 -96q-56 85 -56 196q0 182 154 307q107 77 218 77zM617 813q200 0 328 -188q56 -97 56 -200q0 -207 -233 -359q-125 -66 -247 -66h-18q-83 0 -166 30v2h2
q56 -17 111 -17q193 0 316 160q72 103 72 218v19q0 181 -170 311q-81 47 -156 47q-50 0 -107 -21q20 20 90 45q60 19 122 19zM512 759q152 0 230 -155q17 -57 17 -92q0 -145 -142 -224q-58 -23 -105 -23q-152 0 -230 155q-17 56 -17 92q0 152 155 230q35 13 92 17zM717 672
l4 -4v-2l-4 4v2zM723 663q94 -107 94 -243v-15q0 -187 -171 -313q-100 -64 -200 -64h-30q-204 0 -352 232q-64 123 -64 241v22q0 48 13 111h4l-4 -56v-13q0 -194 181 -322q99 -57 205 -57q215 0 341 204q30 61 30 118v8q0 75 -47 145v2zM15 642h4v-4h-4v4zM388 514v-4
q0 -83 92 -117l30 -5h4q83 0 117 92l5 30v4q0 84 -92 117l-30 5h-4q-84 0 -117 -92zM514 623q75 0 105 -83l4 -28q0 -75 -81 -107l-30 -4q-81 0 -109 90l-2 23q0 78 90 107zM457 512q0 -46 57 -55q42 0 53 55q-10 55 -55 55q-55 -9 -55 -55zM508 557h8q41 -7 41 -41v-8
q-7 -41 -41 -41h-8q-41 7 -41 41v8q7 41 41 41zM491 514v-4q2 -19 19 -19h4q19 2 19 19v4q-2 19 -19 19h-4q-19 -2 -19 -19zM1007 395h4v-5h-4v5zM646 292h5v-2h-5v2z" />
    <glyph glyph-name="l" unicode="l" 
d="M500 1021h19q245 0 415 -221q87 -139 87 -281v-17q0 -244 -221 -415q-139 -87 -281 -87h-17q-194 0 -351 147q-151 158 -151 353v21q0 230 200 396q141 104 300 104zM485 768v-4q4 0 26 -22q21 22 25 22v4h-51zM304 632q0 -49 55 -75l20 -4h10q56 0 79 66v17q0 69 -83 81
q-52 0 -77 -60zM553 638v-13q17 -72 79 -72h10q50 0 73 66l2 15q-15 81 -77 81l-6 2q-81 -14 -81 -79zM253 536v-51l26 28q-22 17 -22 23h-4zM742 511v-3q5 0 26 -23v51h-2zM496 511l15 -15l14 15l-14 14zM304 389q12 -83 81 -83h4q56 0 79 66v17q0 58 -64 79l-17 2
q-57 0 -81 -64zM553 391v-12q0 -47 66 -73h17q62 0 79 73l2 8q0 58 -66 81l-19 2q-79 -15 -79 -79zM485 255v-2h51v2l-25 24z" />
    <glyph glyph-name="m" unicode="m" horiz-adv-x="1100" 
d="M510 1021h15v-4h-6q-104 0 -211 -80h2l109 53q72 23 130 23h15q92 0 171 -45v-2q-80 35 -157 35q-54 0 -127 -21v-2h2l153 10q171 0 293 -141v-2q-86 82 -150 100q-76 23 -118 23h-2v-2q57 -15 129 -51q138 -48 210 -182q18 -36 22 -53l-40 71q-68 86 -129 115h-2v-2
q5 0 59 -57q143 -116 143 -311v-8h-4v4q0 130 -90 239q45 -97 45 -133q31 -73 31 -153q0 -99 -45 -177v4q32 74 32 140v25q0 30 -8 69h-2q-8 -184 -24 -208q-38 -117 -119 -180h-2q87 94 106 176l7 39v2h-1l-57 -129q-69 -127 -212 -181h-4l59 32q95 67 131 141v2h-2
q0 -5 -64 -67q-123 -133 -285 -133h-19v4h4q111 0 227 84v2h-2q-38 -22 -127 -43q-66 -29 -145 -29h-4q-90 0 -179 43v4h2q80 -36 157 -36l79 8v2q-135 11 -169 18q-74 11 -153 66q-29 21 -68 67v2q82 -80 149 -100l62 -18h2v2q-136 62 -178 96q-103 96 -122 177l40 -71
q47 -62 101 -100l8 -4v2l-92 98q-86 115 -86 236v17h4v-6q0 -103 78 -209v2l-55 143q-15 54 -15 102v19q0 91 43 165v-4q-31 -74 -31 -151q0 -37 13 -100h2v10l2 61l-2 52q0 161 135 285h2q-79 -87 -102 -169l-13 -71v-1h2q0 18 59 129q16 51 90 129q72 63 141 83l-65 -36
q-75 -51 -116 -119h2l98 92q111 88 238 88zM182 903h4v-2h-4v2zM486 747l25 -24q11 16 24 22v2l-27 2zM321 621q0 -61 77 -72q50 0 72 60l2 14q-12 77 -74 77h-4q-52 0 -73 -61v-18zM549 625v-2q0 -63 76 -74q51 0 73 59l2 19q0 51 -63 73h-16q-61 0 -72 -75zM274 535
l-2 -20v-7l2 -20l22 23q-20 20 -20 24h-2zM723 510l24 -24v49zM496 511l15 -15q3 11 14 14l-15 15zM321 406v-12q0 -61 77 -73q47 0 70 55l4 22q-13 74 -74 74h-4q-47 0 -69 -51zM549 398v-2q0 -63 76 -75q50 0 73 59l2 20q0 51 -63 72h-16q-61 0 -72 -74zM484 274h51
l-25 24z" />
    <glyph glyph-name="n" unicode="n" horiz-adv-x="1104" 
d="M510 1021h15v-4h-6q-104 0 -211 -80h2l109 53q72 23 130 23h15q92 0 171 -45v-2q-80 35 -157 35q-54 0 -127 -21v-2h2l153 10q171 0 293 -141v-2q-86 82 -150 100q-76 23 -118 23h-2v-2q57 -15 129 -51q138 -48 210 -182q18 -36 22 -53l-40 71q-68 86 -129 115h-2v-2
q5 0 59 -57q143 -116 143 -311v-8h-4v4q0 130 -90 239q45 -97 45 -133q31 -73 31 -153q0 -99 -45 -177v4q32 74 32 140v25q0 30 -8 69h-2q-8 -184 -24 -208q-38 -117 -119 -180h-2q87 94 106 176l7 39v2h-1l-57 -129q-69 -127 -212 -181h-4l59 32q95 67 131 141v2h-2
q0 -5 -64 -67q-123 -133 -285 -133h-19v4h4q111 0 227 84v2h-2q-38 -22 -127 -43q-66 -29 -145 -29h-4q-90 0 -179 43v4h2q80 -36 157 -36l79 8v2q-135 11 -169 18q-74 11 -153 66q-29 21 -68 67v2q82 -80 149 -100l62 -18h2v2q-136 62 -178 96q-103 96 -122 177l40 -71
q47 -62 101 -100l8 -4v2l-62 67q-116 122 -116 267v17h4v-6q0 -103 78 -209v2l-55 143q-15 54 -15 102v19q0 91 43 165v-4q-31 -74 -31 -151q0 -37 13 -100h2v10l2 61l-2 52q0 161 135 285h2q-79 -87 -102 -169l-13 -69v-2h2q0 17 59 128q16 51 90 129q72 63 141 83l-65 -36
q-75 -51 -116 -119h2l98 92q111 88 238 88zM182 903h4v-2h-4v2zM272 510q0 -135 130 -210q54 -28 109 -28q111 0 191 98q45 65 45 132v17q0 123 -126 202q-59 28 -111 28q-135 0 -212 -132q-26 -53 -26 -107z" />
    <glyph glyph-name="o" unicode="o" 
d="M503 1021h15q13 0 60 -13q128 -22 207 -77q28 -21 77 -50q28 -23 46 -67q66 -73 96 -217l17 -71v-21q0 -14 -17 -77q-10 -98 -89 -217q-6 -3 -32 -50q-35 -37 -62 -44q-66 -51 -128 -75q-69 -23 -131 -32q-21 -10 -46 -10h-11q-17 0 -58 13q-121 18 -209 75
q-33 26 -86 56q-14 16 -50 75q-69 94 -89 224q-13 47 -13 60v15q0 13 17 77q7 97 104 236q18 42 63 67q17 8 85 54q78 42 195 61q14 8 39 8zM261 553l6 -44l-6 -39q11 -63 46 -109q15 0 60 -60q62 -35 103 -40q24 6 42 6l41 -6q82 19 109 50q12 26 58 56q35 62 40 103
q-6 24 -6 42l6 39q-14 71 -48 111q-16 0 -58 58q-58 35 -105 40l-40 -6l-41 6q-59 -10 -107 -46q0 -14 -50 -52q-14 0 -44 -84z" />
    <glyph glyph-name="p" unicode="p" horiz-adv-x="1100" 
d="M508 1021h9q52 0 100 -51q85 -22 143 -61l2 2h12q94 0 131 -96l4 -29v-26q57 -101 57 -135q2 -7 28 -33q27 -39 27 -81q0 -61 -53 -107q-3 -40 -55 -137q-3 0 -4 -10v-22q0 -72 -84 -115q-23 -8 -39 -8h-22l-66 -34q-45 -17 -85 -27q-39 -51 -105 -51q-57 0 -106 53
q-54 10 -130 51l-11 8h-26q-78 0 -117 88q-8 17 -8 49v14q-39 60 -59 143q-51 43 -51 98v9q0 61 51 104q7 45 51 132q5 0 8 15v12q0 94 96 129q14 6 39 6h12l55 28q33 15 96 33q37 49 100 49zM272 510q0 -139 138 -214q46 -22 92 -22h19q115 0 196 120q30 60 30 106v19
q0 126 -130 204q-54 26 -107 26q-139 0 -216 -138q-22 -53 -22 -101z" />
    <glyph glyph-name="q" unicode="q" 
d="M507 1021h7q88 0 125 -97q0 -23 21 -23q32 -15 38 -15q38 26 80 26q87 0 127 -94q5 -18 5 -37v-7q0 -40 -26 -78q10 -18 22 -54q32 0 79 -38q36 -43 36 -95q0 -85 -89 -124q-27 -6 -27 -12l-21 -50q26 -35 26 -71v-16q0 -73 -83 -116q-25 -9 -42 -9h-16q-34 0 -73 26
l-54 -22q0 -35 -43 -82q-40 -33 -90 -33q-92 0 -129 101q0 17 -14 17l-41 19q-38 -26 -78 -26h-7q-88 0 -125 97l-6 37q0 40 26 78q-20 57 -26 57q-38 0 -83 51q-26 35 -26 76v7q0 89 96 125q20 2 20 10l21 49q-28 34 -28 82q0 70 70 114q32 18 66 18q43 0 78 -28l56 24
q0 44 57 92q36 21 71 21zM455 925v-1q9 3 40 3h31l38 -2q-19 30 -55 30q-31 0 -54 -30zM177 766h2q35 43 76 76v2h-14q-45 0 -64 -54v-24zM764 844q75 -68 76 -80h2l2 14q-11 66 -64 66h-16zM300 517v-13q0 -107 108 -178q50 -26 104 -26q123 0 191 125q18 46 18 87
q0 123 -122 190q-43 19 -82 19h-13q-97 0 -165 -89q-39 -56 -39 -115zM66 509q0 -32 30 -52l-2 38v31q0 31 3 40h-1q-30 -22 -30 -57zM924 566l3 -54v-3l-3 -54q31 23 31 56t-31 55zM177 257v-16q0 -43 50 -62l21 -2l9 2v2q-12 1 -80 76zM764 179l9 -2h3q68 10 68 68v3l-2 9
q-35 -43 -78 -78zM455 97q22 -31 56 -31q32 0 55 31l-54 -3h-3z" />
    <glyph glyph-name="r" unicode="r" horiz-adv-x="1100" 
d="M509 1024h6q89 0 126 -98q0 -22 21 -22q32 -16 38 -16q38 26 80 26q87 0 127 -94q6 -18 6 -36v-7q0 -41 -27 -79q11 -18 23 -54q32 0 78 -38q37 -43 37 -96q0 -84 -89 -123q-28 -7 -28 -13l-21 -50q27 -35 27 -71v-16q0 -74 -84 -117q-25 -9 -42 -9h-16q-34 0 -73 27
l-54 -23q0 -34 -43 -82q-41 -33 -91 -33q-92 0 -129 101q0 17 -14 17l-41 20q-38 -27 -79 -27h-7q-88 0 -125 98l-5 37q0 40 26 78q-21 57 -26 57q-39 0 -84 51q-26 35 -26 77v6q0 89 96 126q21 2 21 10l21 49q-28 35 -28 80q0 89 95 129l41 5q43 0 78 -28l56 25q0 44 57 92
q37 21 72 21zM456 928v-2q9 4 40 4h26l44 -2q-19 30 -56 30q-30 0 -54 -30zM178 768h1q35 42 77 77v1h-14q-45 0 -64 -54v-24zM766 846q75 -68 77 -80h2l1 14q-10 66 -64 66h-16zM486 719q14 -8 29 -8q23 5 23 10l-2 2h-47zM425 705l2 -26q0 -58 -68 -80l-18 -2l-22 2
l-4 -14q40 -27 40 -66v-14q0 -39 -40 -64v-2l4 -14l12 2h17q50 0 75 -61q4 -8 4 -23v-2l-2 -21l14 -5q25 42 75 42q40 0 73 -42l12 5l-2 13v15q0 58 72 79h22l13 -2l5 14q-42 27 -42 75q0 42 42 73v2l-5 10l-21 -2h-2q-61 0 -84 70v26l2 12l-14 4h-2q-25 -40 -64 -40h-14
q-37 0 -68 40zM345 641h3q35 10 35 38q-21 -15 -38 -38zM641 677q8 -36 36 -36v2q-17 21 -34 34h-2zM66 510q0 -31 30 -52l-2 44v26q0 31 4 40h-2q-30 -23 -30 -58zM926 568l4 -54v-4l-4 -54q32 24 32 56q0 34 -32 56zM719 540q-8 -16 -8 -25v-5q4 -24 10 -24l2 17v16l-2 21
h-2zM303 538l-2 -2v-47l4 -3q8 16 8 26q0 16 -10 26zM347 383v-2q13 -17 34 -34h2v1q0 26 -36 35zM641 350v-3q6 0 36 36h-3q-23 0 -33 -33zM484 305v-2l21 -2h16l17 2q0 6 -24 10h-5q-9 0 -25 -8zM178 258v-16q0 -44 50 -63l21 -1l9 1v2q-12 2 -80 77zM766 179l9 -1h3
q68 9 68 68v3l-1 9q-36 -44 -79 -79zM456 98q22 -32 56 -32q32 0 56 32l-54 -4h-4z" />
    <glyph glyph-name="s" unicode="s" horiz-adv-x="1100" 
d="M509 1024h6q89 0 126 -98q0 -22 21 -22q32 -16 38 -16q38 26 80 26q87 0 127 -94q6 -18 6 -36v-7q0 -41 -27 -79q11 -18 23 -54q32 0 78 -38q37 -43 37 -96q0 -84 -89 -123q-28 -7 -28 -13l-21 -50q27 -35 27 -71v-16q0 -74 -84 -117q-25 -9 -42 -9h-16q-34 0 -73 27
l-54 -23q0 -34 -43 -82q-41 -33 -91 -33q-92 0 -129 101q0 17 -14 17l-41 20q-38 -27 -79 -27h-7q-88 0 -125 98l-5 37q0 40 26 78q-21 57 -26 57q-39 0 -84 51q-26 35 -26 77v6q0 89 96 126q21 2 21 10l21 49q-28 35 -28 80q0 89 95 129l41 5q43 0 78 -28l56 25q0 44 57 92
q37 21 72 21zM456 928v-2q9 4 40 4h26l44 -2q-19 30 -56 30q-30 0 -54 -30zM178 768h1q35 42 77 77v1h-14q-45 0 -64 -54v-24zM766 846q75 -68 77 -80h2l1 14q-10 66 -64 66h-16zM486 719q14 -8 29 -8q23 5 23 10l-2 2h-47zM425 705l2 -26q0 -14 -7 -29q33 0 45 -34l2 -19
l17 7v2q-12 0 -19 35q0 12 12 35h-2q-16 6 -38 33zM583 709q-22 -33 -38 -33v-2q12 -15 12 -28v-9q0 -15 -17 -33l17 -7q0 38 28 49l14 4h4l-6 26v17l2 12l-14 4h-2zM345 641h3q35 10 35 38q-21 -15 -38 -38zM641 677q8 -36 36 -36v2q-17 21 -34 34h-2zM489 639
q0 -13 21 -21q25 5 25 25q-5 21 -21 21h-5q-18 0 -20 -25zM397 603q6 -21 21 -21h2q22 1 22 22v2q0 17 -24 21q-15 0 -21 -24zM580 603q6 -21 21 -21h2q22 1 22 22v2q-5 21 -21 21q-24 -4 -24 -24zM341 597l-22 2l-4 -14q25 -17 35 -38q19 12 31 12q37 -7 37 -19h2l7 17
q-42 0 -53 37v10q-14 -7 -33 -7zM650 601q0 -36 -47 -44h-6v-1l6 -14h1q18 17 37 17q16 0 33 -14q0 13 35 42v2l-5 10l-21 -2h-2l-31 6v-2zM66 510q0 -31 30 -52l-2 44v26q0 31 4 40h-2q-30 -23 -30 -58zM926 568l4 -54v-4l-4 -54q32 24 32 56q0 34 -32 56zM463 512
q9 -47 47 -47h5q44 9 44 44v3q-6 49 -49 49q-38 0 -47 -49zM719 540q-8 -16 -8 -25v-5q4 -24 10 -24l2 17v16l-2 21h-2zM303 538l-2 -2v-47l4 -3q8 16 8 26q0 16 -10 26zM360 515v-3q3 -23 23 -23q23 6 23 23q0 20 -26 23q-20 -6 -20 -20zM618 509q9 -20 23 -20q20 0 23 25
q-5 21 -21 21h-4q-21 0 -21 -26zM418 484q0 -10 -31 -17h-9q-13 0 -28 12h-2q0 -16 -33 -38v-2l4 -14l12 2h17l26 -6v4q0 34 46 42h7q-6 17 -9 17zM603 484l-6 -17h6q47 -6 47 -46l26 6h15l13 -2l5 14q-17 8 -37 40q-12 -12 -26 -12h-10q-15 0 -33 17zM397 421q4 -22 21 -22
h2q22 2 22 22v2q0 15 -21 21q-24 -5 -24 -23zM580 420q6 -21 21 -21h5q14 0 19 19v5q0 15 -21 21q-24 -4 -24 -24zM467 427v-2q0 -33 -26 -45l-20 -7q6 -17 6 -30v-2l-2 -21l14 -5q12 23 40 35q-14 17 -14 33q0 19 17 37v1zM540 421q17 -18 17 -33v-10q0 -12 -12 -28
q18 -6 42 -35l12 5l-2 13v15l6 26h-2q-37 0 -44 47v6h-1zM489 385v-4q5 -21 21 -21q25 0 25 25q-8 21 -23 21q-23 -4 -23 -21zM347 383v-2q13 -17 34 -34h2v1q0 26 -36 35zM641 350v-3q6 0 36 36h-3q-23 0 -33 -33zM484 305v-2l21 -2h16l17 2q0 6 -24 10h-5q-9 0 -25 -8z
M178 258v-16q0 -44 50 -63l21 -1l9 1v2q-12 2 -80 77zM766 179l9 -1h3q68 9 68 68v3l-1 9q-36 -44 -79 -79zM456 98q22 -32 56 -32q32 0 56 32l-54 -4h-4z" />
    <glyph glyph-name="t" unicode="t" 
d="M503 1017h14q73 0 122 -82q7 -35 21 -35l28 -12q38 23 79 23q87 0 134 -92q9 -30 9 -54q0 -40 -24 -77q15 -39 19 -39q49 -12 78 -48q34 -42 34 -92q0 -92 -97 -136q-22 -2 -22 -17l-12 -25q24 -36 24 -83q0 -91 -99 -134q-22 -7 -47 -7q-40 0 -78 24q-38 -16 -38 -20
q-13 -49 -46 -74q-41 -37 -93 -37q-98 0 -140 104q0 15 -15 15l-27 12q-31 -24 -79 -24q-94 0 -136 101q-5 18 -6 42q0 41 23 79q-12 40 -22 40q-60 20 -85 62q-22 38 -22 69v14q0 57 47 102q22 21 67 35l15 37q-23 39 -23 81q0 75 72 122q35 20 72 20q36 0 81 -23
q38 15 38 20q1 30 47 77q42 32 87 32zM257 597q0 -152 134 -251l17 -10v1q-68 37 -99 136q-14 48 -14 88q0 149 133 250q83 52 156 52h32q107 0 206 -96v2q-100 109 -225 109h-20q-126 0 -226 -113q-67 -88 -67 -191q0 -58 28 -129v-2q-38 66 -38 146q0 117 85 210
q95 92 208 92h22q56 0 114 -27h2v2q-72 35 -146 35q-163 0 -264 -154q-38 -77 -38 -150zM250 819q-109 -100 -109 -230v-8q0 -156 146 -257q80 -44 158 -44q62 0 136 32q-64 -42 -153 -42q-149 0 -247 129q-55 79 -55 177q0 63 27 122v2h-2q-35 -77 -35 -143
q0 -148 129 -248q81 -56 176 -56q164 0 262 151v2h-2q-26 -47 -77 -77q-72 -35 -134 -35h-22q-121 0 -220 105q-72 89 -72 192v15q0 115 96 213h-2zM334 614v-1h2q35 67 137 100q46 14 88 14q149 0 248 -130q55 -81 55 -172q0 -126 -92 -222h2q105 99 105 233
q0 148 -129 247q-81 55 -176 55q-65 0 -139 -33q66 42 152 42q169 0 267 -160q35 -69 35 -134v-20q0 -55 -25 -112v-2h2q34 72 34 143q0 152 -138 253q-80 49 -165 49h-3q-161 0 -260 -150zM624 678q39 -28 62 -67q39 -76 39 -151q0 -166 -156 -265q-73 -37 -138 -37h-20
q-111 0 -210 92v-2q101 -105 224 -105h16q130 0 229 112q67 87 67 188v5q0 91 -56 173h2q69 -83 69 -191q0 -150 -129 -249q-81 -55 -177 -55q-59 0 -119 25h-1v-2q71 -32 129 -32h20q133 0 235 123q59 85 59 181q0 158 -143 257h-2zM441 670l-1 -12v-5l11 -4l4 11zM562 660
l4 -12l11 5l-1 8v9h-2zM502 636v-5l3 -3h5l5 5v1l-6 7zM676 628h4v-4zM413 594l5 -3h3l5 5v3q0 4 -6 5q-7 -2 -7 -10zM589 594l5 -3h3l5 5v3q0 4 -6 5q-7 -2 -7 -10zM347 576l10 -14l11 4l-4 11h-5zM651 577l-3 -11h1l11 -4l8 14l-12 1h-5zM477 507q0 -23 30 -29h5
q27 8 27 27v5q0 26 -32 30h-2q-23 0 -28 -33zM376 510q3 -7 7 -8h1l5 5v5l-3 3h-5zM626 510v-3q0 -3 7 -5l6 5v3l-5 5h-3zM356 455l-9 -12v-2h9l8 -1l5 11zM648 450l5 -10l2 1h13v2q-7 12 -12 12zM413 418l5 -3h7l1 8q0 2 -6 5q-7 -2 -7 -10zM589 418l5 -3h5l3 3v5q0 4 -6 5
q-7 -2 -7 -10zM502 386v-3l5 -5h3q3 0 5 6q-2 7 -5 7h-3zM440 366v-5l1 -12l14 8l-5 12zM566 368l-4 -11l12 -8h2v12l1 1v2l-11 5v-1zM584 316h3v-2h-3v2z" />
    <glyph glyph-name="u" unicode="u" 
d="M510 1026h6q89 0 126 -98q0 -22 21 -22q33 -16 38 -16q38 26 81 26q87 0 127 -94q5 -18 5 -37v-7q0 -40 -26 -78q11 -19 23 -54q32 0 78 -39q37 -43 37 -96q0 -84 -89 -124q-28 -7 -28 -12l-21 -50q26 -35 26 -72v-16q0 -74 -83 -117q-25 -8 -42 -8h-16q-35 0 -73 26
l-54 -23q0 -34 -44 -82q-41 -33 -91 -33q-92 0 -129 101q0 18 -14 18l-42 19q-38 -26 -78 -26h-7q-88 0 -126 97l-5 37q0 40 26 79q-20 57 -26 57q-39 0 -84 51q-26 35 -26 77v6q0 89 96 126q21 3 21 11l21 48q-28 34 -28 82q0 71 70 116q32 17 66 17q43 0 79 -28l55 25
q0 44 58 92q37 21 72 21zM457 930v-2q9 4 40 4h32l38 -2q-19 30 -56 30q-30 0 -54 -30zM243 605q0 -152 141 -240q52 -26 70 -26v-4q-39 4 -105 42q-122 93 -122 228q0 152 141 241l26 12v2h-1q-98 -36 -152 -132q-30 -64 -30 -126v-5q0 -132 117 -222q75 -49 145 -49h26
q18 0 56 7v2h-2l-49 -5q-37 0 -96 31l-1 2l-2 -2l-39 35q-80 85 -80 189v12q0 147 147 239q69 31 129 31q53 0 110 -24h2v2q-65 29 -121 29h-19q-110 0 -201 -99q-63 -78 -63 -178q0 -124 107 -217h-2q-115 88 -115 224q0 154 145 242q65 33 125 33v2h-10q-137 0 -227 -117
q-50 -75 -50 -159zM396 862v-2h4v2h-4zM304 579q0 -89 57 -165q-33 48 -33 101v24h4v5h-4v2q0 104 100 196q77 62 174 62h2q157 0 244 -150l5 -12h2v2q-40 101 -140 152q-65 26 -118 26q-143 0 -236 -133q-38 -71 -38 -131v-21l3 -40h-3l-9 70q0 146 136 237q69 39 142 39
q110 0 198 -86v2q-92 98 -209 98q-146 0 -239 -135q-38 -71 -38 -143zM178 770h2q35 43 77 76v2h-14q-46 0 -65 -54v-24zM768 848q75 -69 77 -80h1l2 14q-11 66 -65 66h-15zM270 790q-96 -90 -96 -205v-9q0 -141 131 -231q70 -40 133 -40h19q53 0 122 30q-62 -40 -141 -40
q-161 0 -250 157q-26 60 -26 120q0 57 25 110v2h-2q-31 -69 -31 -129q0 -147 136 -237q68 -39 141 -39q115 0 202 91q20 21 30 40h-2q-29 -48 -96 -75l-8 2l1 -2v-3q-51 -16 -90 -16h-9q-140 0 -230 131q-41 69 -41 132v20q0 104 84 191h-2zM332 551v-3h1q8 57 56 122
q92 101 213 101q152 0 243 -143q33 -61 33 -134h1v31q0 92 -80 183q-89 81 -195 81q-135 0 -227 -121q-31 -40 -45 -117zM358 611h1q33 53 103 78l2 -2l4 4l5 -2v4l2 -2h1l37 3h19q36 0 77 -24l2 2q0 -4 29 -26q58 -53 58 -150v-13h-4v4h-1v-7h3v-2q0 -85 -85 -178
q-85 -73 -190 -73q-142 0 -231 127q-11 16 -19 37h-2v-2q20 -52 61 -96q87 -82 189 -82h17q138 0 231 136q36 68 36 145l-2 21h4l2 -30v-26q0 -113 -107 -206q-80 -56 -155 -56h-23q-100 0 -188 82v-1q91 -95 202 -95h12q141 0 233 135q38 71 38 143q0 52 -30 124
q40 -63 40 -142q0 -149 -143 -240q-64 -33 -131 -33h-7q-55 0 -108 24h-1v-2q65 -31 132 -31q142 0 232 131q40 68 40 136v21q0 123 -122 218h4q90 -50 127 -149q16 -44 16 -87v-12q0 -130 -117 -220q-67 -49 -164 -49v-1h38q97 0 187 87q73 84 73 181v13q0 125 -110 214
q-51 36 -85 42v3h2q61 -12 132 -75q77 -87 77 -186v-12q0 -124 -108 -213q-48 -33 -58 -33v-2h2q101 39 152 134q29 64 29 126q0 148 -141 241q-68 33 -127 33h-14l-42 -4v4q40 7 64 7q130 0 220 -112q54 -76 54 -161v-5q0 -112 -85 -199h2q97 90 97 213q0 145 -132 234
q-67 40 -143 40q-59 0 -124 -28q60 37 122 37h28q120 0 214 -119q47 -75 47 -152v-8q0 -54 -22 -105v-2h2q29 66 29 126q0 163 -159 251q-60 25 -111 25h-11q-131 0 -220 -117zM487 698h3v-4h-3v4zM618 667h3v-2h-3v2zM855 640v-3h2v3h-2zM66 511q0 -29 28 -52h2l-2 38v32
q0 31 4 40h-2q-30 -22 -30 -58zM928 569l4 -54v-4l-4 -54q32 24 32 56q0 34 -32 56zM145 523q0 -138 117 -228q73 -51 159 -51h1q147 0 236 135q24 36 35 96v3h-2q-6 -58 -72 -134q-84 -82 -195 -82h-5q-145 0 -234 136q-37 65 -37 122v3h-3zM700 523h3v-3h-3v3zM168 396v-3
h1v3h-1zM379 379h3v-2h-3v2zM585 340h3l-3 -3h-4zM178 258v-15q0 -56 70 -65l9 2q-39 33 -79 78zM768 180l8 -2h4q68 9 68 68v4l-2 8q-35 -43 -78 -78zM630 166v-2h3v2h-3zM457 98q22 -32 56 -32q32 0 56 32l-54 -4h-4z" />
    <glyph glyph-name="v" unicode="v" 
d="M508 1021h9q53 0 102 -53l24 -4v-4q-30 6 -57 6h-26q-154 0 -274 -143q-68 -102 -68 -212q0 -183 170 -303q55 -34 114 -34h19q54 0 114 36h4q-101 -81 -222 -81q-182 0 -299 165q-55 88 -55 182v18q0 84 47 168v14q0 94 96 129q14 6 39 6h12l55 28q33 15 96 33
q37 49 100 49zM592 956q100 0 168 -47l2 2h12q94 0 131 -96l4 -29v-26q57 -101 57 -135q2 -7 28 -33q27 -39 27 -81q0 -64 -53 -105h-2l2 23v33q0 167 -159 287q-93 56 -196 56q-181 0 -303 -166q-38 -62 -38 -129q0 -40 18 -91q-53 82 -53 183q0 191 180 309q88 45 175 45z
M600 786h8q170 0 286 -151q64 -93 64 -206q0 -91 -49 -170v-24q0 -72 -84 -115q-23 -8 -39 -8h-22l-66 -34q-45 -17 -85 -27q-39 -51 -105 -51q-57 0 -106 53l-34 8v4q50 -12 89 -12q179 0 297 163q57 96 57 192q0 174 -151 290q-72 51 -154 51q-37 0 -93 -20q46 36 136 53z
M510 694q107 0 164 -102q18 -36 18 -73v-17q0 -95 -100 -155q-38 -18 -73 -18h-17q-95 0 -153 96q-22 39 -22 86q0 122 128 175q28 8 55 8zM704 651q88 -103 88 -232q0 -173 -151 -290q-93 -64 -206 -64q-95 0 -174 47h-26q-78 0 -117 88q-8 17 -8 49v14q-39 60 -59 143
q-51 43 -51 98v9q0 61 51 104l2 12h4q-6 -35 -6 -65q0 -181 163 -297q95 -57 192 -57q177 0 298 160q43 72 43 130v19q0 66 -43 130v2zM55 637h4v-4h-4v4zM417 511q0 -61 67 -88l29 -4q62 0 87 73l2 21q0 65 -77 89l-14 2q-65 0 -90 -71z" />
    <glyph glyph-name="w" unicode="w" 
d="M507 1021h7q88 0 125 -97q0 -23 21 -23q32 -15 38 -15q38 26 80 26q87 0 127 -94q5 -18 5 -37v-7q0 -40 -26 -78q10 -18 22 -54q32 0 79 -38q36 -43 36 -95q0 -85 -89 -124q-27 -6 -27 -12l-21 -50q26 -35 26 -71v-16q0 -73 -83 -116q-25 -9 -42 -9h-16q-34 0 -73 26
l-54 -22q0 -35 -43 -82q-40 -33 -90 -33q-92 0 -129 101q0 17 -14 17l-41 19q-38 -26 -78 -26h-7q-88 0 -125 97l-6 37q0 40 26 78q-20 57 -26 57q-38 0 -83 51q-26 35 -26 76v7q0 89 96 125q20 2 20 10l21 49q-28 34 -28 82q0 70 70 114q32 18 66 18q43 0 78 -28l56 24
q0 44 57 92q36 21 71 21zM455 925v-1q9 3 40 3h31l38 -2q-19 30 -55 30q-31 0 -54 -30zM177 766h2q35 43 76 76v2h-14q-45 0 -64 -54v-24zM764 844q75 -68 76 -80h2l2 14q-11 66 -64 66h-16zM368 561v-2q0 -100 97 -154l44 -9l15 2v-4l-29 -2h-4q-111 0 -163 119
q-9 35 -9 53l6 42v2h-2l-17 -47q0 -102 100 -158q39 -16 70 -16h7q18 0 47 7l-2 2v2q33 0 73 43h2q-57 -78 -145 -78q-87 0 -144 76v2h-1v-2q11 -35 36 -50q49 -37 104 -37q96 0 151 91q16 32 16 40h3v-4h2v9h-3l3 24q0 74 -78 108l-30 5q-63 0 -102 -50h-2q56 80 143 80h10
q91 0 146 -91h2v2q-24 68 -40 68q-46 38 -108 38q-99 0 -154 -97q-13 -30 -13 -38h-1l-2 1h-2v-1l2 -11l-2 -14q0 -16 11 -48q-26 37 -26 88v2q0 109 111 161l12 4v2h-5q-68 0 -118 -99q-11 -36 -11 -61zM385 545l4 -34h2q0 79 22 107q55 87 153 87l24 -2h2v2l-42 12
q-70 0 -130 -69q-35 -53 -35 -103zM594 703v-1h3v1h-3zM352 573v-12q0 -68 60 -123v1q-54 52 -54 124v5q0 74 62 132h-2q-33 -14 -59 -82q-7 -25 -7 -45zM396 545v-3h2q0 43 57 100q50 42 115 42q40 0 88 -24q-30 33 -85 33h-12q-99 0 -155 -106zM368 667q-36 -35 -36 -94
v-5q0 -110 114 -162l5 -1h2v1q-62 22 -97 87q-16 40 -16 70v8q0 50 30 96h-2zM484 630v-1h2q27 10 54 10h14q83 0 141 -82q24 -46 24 -66h2v23q0 33 -54 90q-55 40 -108 40h-9q-27 0 -66 -14zM511 630v-1q98 0 142 -53q50 -53 50 -119l-3 -33v-2h2l8 26v17q0 93 -99 151
q-44 16 -73 16zM502 629v-2h7v2h-7zM575 615v-2q57 -22 87 -78q20 -37 20 -84q0 -46 -26 -90h2q33 30 33 90q0 113 -115 164h-1zM587 601q69 -58 69 -141q0 -93 -86 -149h-2v-2h2q55 20 55 30q45 49 45 114v2q0 90 -81 146h-2zM66 509q0 -32 30 -52l-2 38v31q0 31 3 40h-1
q-30 -22 -30 -57zM924 566l3 -54v-3l-3 -54q31 23 31 56t-31 55zM625 547v-2l2 -5h2v2l-2 5h-2zM629 538v-1q8 -20 12 -61q0 -107 -108 -162q-28 -10 -43 -10l3 -4h23q33 0 88 54q42 53 42 113q0 31 -16 71h-1zM300 514v-19q15 -58 70 -92q43 -30 92 -30q33 0 76 18v1h-1
q-34 -13 -66 -13q-108 0 -162 109l-7 26h-2zM630 502q0 -136 -135 -179l-40 -4l-40 6h-2v-2q28 -12 44 -12q115 0 165 114q10 30 10 54v23h-2zM622 478q-17 -66 -56 -94q-51 -44 -113 -44q-51 0 -99 32v-2q32 -38 97 -38h7q96 0 153 100l12 42v4h-1zM406 462l4 -4v-3l-4 3v4
zM412 453h1v-3h-1v3zM455 405v-2h3v2h-3zM177 257v-16q0 -43 50 -62l21 -2l9 2v2q-12 1 -80 76zM764 179l9 -2h3q68 10 68 68v3l-2 9q-35 -43 -78 -78zM455 97q22 -31 56 -31q32 0 55 31l-54 -3h-3z" />
    <glyph glyph-name="x" unicode="x" horiz-adv-x="1093" 
d="M505 1017h7q87 0 124 -97q0 -22 21 -22q33 -16 38 -16q38 26 80 26q86 0 126 -93q5 -18 5 -37v-7q0 -40 -26 -77q11 -19 23 -54q31 0 78 -38q36 -43 36 -95q0 -84 -88 -123q-28 -7 -28 -12l-21 -50q26 -35 26 -71v-16q0 -73 -83 -116q-24 -8 -41 -8h-16q-32 0 -74 26
q38 19 92 71q79 96 79 202v15q0 142 -126 244q-85 61 -178 61h-28l-21 -2v4l45 3h21q137 0 242 -126q61 -89 61 -187q0 -142 -118 -244l9 -2h3q68 10 68 68l-2 14q72 112 72 207v7q0 145 -122 246q-88 64 -182 64h-14q-150 0 -254 -137v4q100 155 272 155h1q164 0 268 -154
q42 -78 42 -148v-32l-2 -17q31 23 31 56q0 31 -33 58q-9 64 -53 128q-104 130 -254 130t-255 -131q-43 -64 -55 -139v-7h2q3 40 31 87q104 129 249 129h12q155 0 258 -143q50 -83 50 -168q0 -55 -23 -116h-1v2q15 53 15 97q0 155 -138 259q-87 54 -175 54q-102 0 -190 -66
q21 14 31 16l2 -21q0 -62 -68 -83l-17 -2l-22 2l-4 -14q40 -26 40 -66v-13q0 -39 -40 -64v-2l4 -14l12 2h17q50 0 74 -61q4 -8 4 -22v-2l-2 -21l14 -5q25 42 74 42q40 0 73 -42l12 5l-2 12v16q0 57 71 78h23l12 -2l5 14q-42 27 -42 74t44 71l7 -21h1l-1 -1l1 -21v-4
q-8 -11 -8 -22v-5q0 -13 10 -26v-2q0 -103 -93 -204q-95 -88 -222 -88q-147 0 -249 128q-27 38 -36 66h-2v-4q-41 0 -88 52q-26 35 -26 76v7q0 88 95 124q21 3 21 11l21 48q-28 35 -28 80q0 88 95 128l40 5q43 0 78 -28l55 25q0 43 57 91q36 21 71 21zM453 922v-2q9 4 40 4
h31l38 -2q-19 29 -55 29q-30 0 -54 -29zM176 763h2q35 42 76 76v2h-14q-45 0 -64 -54v-24zM761 841q75 -68 76 -80h2l2 14q-11 66 -64 66h-16zM500 730h5v-4h-5v4zM529 725q157 0 256 -130q59 -84 59 -176v-16q0 -137 -121 -239q-56 -39 -69 -39v-2h2l6 2q0 -4 -10 -6
q-16 -3 -16 -24q-38 -95 -129 -95t-128 100q0 18 -14 18l-42 19q-37 -26 -77 -26h-7q-88 0 -125 97l-5 36q0 40 26 78l-4 14q103 -168 282 -168q149 0 251 129q59 86 59 179v12q0 26 -7 60h4q13 -57 13 -95q0 -159 -147 -264q-81 -47 -162 -47h-9q-134 0 -239 114v-16
q0 -53 66 -64l19 2q76 -52 173 -52q153 0 254 133q57 84 57 182q0 102 -65 189l19 -33q-7 -4 -19 -4h-4q-61 0 -83 69v26l2 12q45 -8 112 -89q59 -89 59 -184q0 -164 -149 -266q-76 -47 -160 -47h-4q-66 0 -121 24h-2v-1q72 -33 142 -33q151 0 256 135q56 88 56 178
q0 155 -137 259h3q97 -51 144 -188q9 -40 10 -82q0 -154 -136 -257q-87 -56 -173 -56l-42 4q22 -31 56 -31q29 0 57 31q61 15 91 31q166 101 166 278q0 172 -161 274q-65 30 -103 34h-4v-1q26 -4 26 -7q-27 -42 -66 -42h-13q-40 0 -68 42v1q40 18 95 18zM483 714
q14 -8 29 -8q11 0 24 12h-50zM545 716v-2h8v2h-8zM638 681h4v-1h-4v1zM342 636h4q35 11 35 39q-22 -16 -39 -39zM636 673q0 -28 40 -38v1l-38 37h-2zM339 645v-2l-3 -3v2zM334 640h2v-4h-2v4zM66 507q0 -32 29 -52l-2 43v26q0 31 4 40h-2q-29 -22 -29 -57zM299 545v-7h2v7
h-2zM299 534v-48l4 -3q8 16 8 26q0 15 -10 25h-2zM112 386v-4h2v4h-2zM344 381v-2q13 -18 35 -35h2v2q0 25 -37 35zM636 348v-4q6 0 37 37h-4q-22 0 -33 -33zM481 303v-2l21 -2h15l17 2q-6 10 -27 10h-2q-8 0 -24 -8zM671 128l-3 -3h-6v1z" />
    <glyph glyph-name="y" unicode="y" horiz-adv-x="1100" 
d="M508 1023h7q88 0 125 -97l4 -20h-2q-37 11 -78 11q-161 0 -265 -145q-50 -84 -50 -170q0 -155 137 -261l21 -12h2v2q-30 13 -30 31q-16 21 -35 22q-20 34 -20 41v1h24l26 -5v4q0 34 45 41h7q-6 18 -8 18q0 -10 -32 -18h-8q-13 0 -28 12h-2q0 -14 -31 -38q-13 19 -25 77
l-1 35v22q0 126 109 228q92 75 197 75h19q109 0 207 -87q19 -21 19 -24h2l2 13q-11 67 -65 67h-15l3 -6h-2q-82 53 -169 53h-15q-141 0 -245 -129q-61 -89 -61 -186q0 -66 34 -145q-45 74 -45 159q0 162 146 266q80 48 160 48h20q59 0 120 -27h1v1q-12 4 -12 7q34 26 78 26
q87 0 127 -94q6 -18 6 -36v-7q0 -41 -26 -78q10 -19 22 -54q32 0 78 -39q37 -43 37 -95q0 -91 -101 -129q-16 0 -16 -9h-3q12 41 12 84v7q0 137 -113 238q-90 73 -204 73q-159 0 -262 -144l-5 -9v-2h1q11 25 28 25q18 11 26 36l35 21q5 -1 5 -14v-5q0 -19 -7 -33
q34 0 46 -33l1 -19l18 7v1q-12 0 -19 35q0 12 12 35h-2q-21 9 -37 33q63 28 126 28q168 0 273 -157q42 -78 42 -153v-14q0 -132 -113 -233l8 -2h4q68 10 68 68v4l-4 12q52 77 52 169v7q0 159 -148 264q-83 47 -167 47q-65 0 -142 -33q68 42 155 42q161 0 264 -145
q50 -83 50 -170q0 -64 -27 -127v-2h1l4 11h2q26 -35 26 -72v-15q0 -74 -84 -117q-24 -9 -42 -9h-15q-35 0 -73 26l-54 -22q0 -34 -44 -82q-40 -33 -90 -33q-95 0 -131 106v7l2 2q41 -11 68 -11h28q134 0 240 124q62 90 62 186v4q0 167 -147 267h-2q9 -6 17 -29
q16 -15 33 -17l21 -39l-14 -3h-7l-31 5v-2q0 -35 -47 -43h-5v-2l5 -14h2q18 17 36 17q17 0 33 -13q12 28 35 40q26 -58 26 -122v-2q0 -167 -149 -270q-81 -45 -154 -45h-24q-125 0 -230 111v-15q0 -44 51 -63l21 -2l10 4q84 -51 162 -51h21q127 0 230 110q74 93 74 198v13
q0 91 -57 175h2q71 -86 71 -195v-6q0 -163 -151 -267q-78 -45 -164 -45q-62 0 -127 26l2 -2v-1q-35 -25 -75 -25h-7q-88 0 -125 98l-5 36q0 40 26 79q-21 57 -26 57q-39 0 -84 50q-26 36 -26 77v7q0 89 96 125l17 4l2 -2q-11 -37 -11 -75v-17q0 -139 127 -244
q88 -61 183 -61h9q157 0 259 143l7 10v2h-2q-8 -19 -22 -19q-25 -14 -25 -35q-26 -24 -42 -24l-1 10v16l5 26h-2q-37 0 -43 47v5h-2l-16 -5q18 -18 18 -33v-10q0 -13 -12 -28q23 -9 41 -37q-59 -26 -115 -26h-24q-142 0 -249 136q-54 84 -54 179q0 137 112 242v2h-14
q-45 0 -65 -54v-25h2l12 12v-1q-62 -88 -62 -190q0 -171 160 -275q79 -40 155 -40q63 0 142 33q-68 -43 -158 -43h-3q-168 0 -272 160q-40 77 -40 155q0 61 26 125l-2 -2h-3q-24 40 -24 78q0 89 95 129l40 5q43 0 79 -27l55 24q0 44 58 92q36 21 71 21zM456 927v-1q9 3 40 3
h26l43 -2q-19 30 -55 30q-31 0 -54 -30zM207 800h2v-3h-2v3zM198 788v-2l-5 -5v2zM485 719q14 -9 30 -9q22 5 23 10l-2 2h-47zM583 708q-22 -33 -38 -33v-2q12 -15 12 -28v-8q0 -16 -18 -33l18 -7q0 37 28 48l13 4h4l-5 26v17l1 13l-13 3h-2zM489 639q0 -14 21 -21
q24 4 24 24q-5 21 -21 21h-5q-17 0 -19 -24zM397 602q6 -21 21 -21h1q23 2 23 23v1q0 15 -21 21q-24 -4 -24 -24zM579 602q6 -21 21 -21h2q23 2 23 23v1q-5 21 -21 21q-25 -4 -25 -24zM341 597l-23 1l-3 -13q25 -17 35 -39q19 12 31 12q37 -6 37 -19h1l7 18q-41 0 -52 36v11
q-14 -7 -33 -7zM66 510q0 -29 28 -52h2l-2 43v26q0 31 3 40h-1q-30 -22 -30 -57zM926 567l3 -54v-3l-3 -54q31 23 31 56t-31 55zM463 512q8 -47 47 -47h5q43 8 43 43v4q-6 48 -48 48q-38 0 -47 -48zM719 539q-9 -16 -9 -24v-2q0 -22 10 -28l2 18v15l-2 21h-1zM303 538l-2 -2
v-47l3 -4q9 17 9 27q0 15 -10 26zM360 515v-3q2 -23 23 -23q22 6 22 23q0 19 -26 22q-19 -5 -19 -19zM618 508q8 -19 24 -19q21 4 21 24q-4 21 -21 21h-3q-21 0 -21 -26zM602 484l-5 -18h5q47 -5 47 -45l26 5h16l12 -1l5 13q-17 9 -36 40q-12 -12 -27 -12h-10q-15 0 -33 18z
M397 421q4 -23 21 -23h1q23 2 23 23v2q0 15 -21 21q-24 -5 -24 -23zM579 419q6 -21 21 -21h5q15 0 20 20v5q0 15 -21 21q-25 -5 -25 -25zM466 426v-1q0 -33 -26 -46l-19 -7q5 -16 5 -29v-2l-1 -21l13 -5q12 23 40 35q-13 16 -13 33q0 18 17 36v2zM489 384v-3q4 -21 21 -21
q24 0 24 24q-7 21 -22 21q-23 -3 -23 -21zM484 304v-1l21 -2h15l18 2q0 6 -25 10h-5q-8 0 -24 -9zM252 184h4v-1h-4v1zM456 97q22 -31 56 -31q32 0 55 31l-54 -3h-3z" />
    <glyph glyph-name="z" unicode="z" horiz-adv-x="1100" 
d="M500 1021h21q226 0 391 -195q109 -142 109 -313v-2q0 -260 -228 -427q-132 -84 -287 -84q-234 0 -397 195q-109 142 -109 305v21q0 228 197 393q143 107 303 107zM43 578v-2q0 -137 113 -254q116 -105 256 -105q60 0 137 27v2l-14 -2h-37q-130 0 -221 133q-45 95 -64 154
q-8 48 -8 78v16q0 191 182 314q75 39 121 43v2h-8q-186 0 -342 -156q-106 -131 -115 -250zM226 605q0 -37 14 -103h2q0 173 158 252q118 66 207 66h12q206 0 324 -189q37 -71 37 -96h2v10q0 97 -78 230q-91 122 -191 162q-83 39 -125 39h-2q-164 0 -289 -150
q-71 -107 -71 -221zM486 779v-2h2l18 2q170 0 257 -170q61 -92 61 -191v-28q0 -169 -160 -294q-78 -48 -141 -57v-2h2q122 0 258 86q131 94 181 254q14 48 14 68q0 117 -96 234q-122 121 -273 121q-47 0 -123 -21zM392 515v-11q0 -65 71 -102q20 -10 50 -10q80 0 112 90
l4 29q0 82 -88 114l-28 4h-7q-77 0 -110 -86zM513 617q71 0 100 -80l4 -26q0 -74 -84 -105l-25 -2q-70 0 -100 78l-4 31q0 73 84 102zM457 508q0 -36 47 -51h4q56 10 56 54t-56 53q-43 0 -51 -56zM775 556l2 -31v-27q0 -123 -119 -211q-129 -76 -156 -76q-43 -14 -96 -14
h-10q-190 0 -310 174q-45 79 -45 109h-2v-11q0 -81 68 -207q24 -42 90 -106q103 -87 217 -109l21 -2h2q191 0 313 178q54 93 54 193q0 64 -27 140h-2zM502 554h17q35 -11 35 -35v-17q0 -26 -39 -35h-9q-28 0 -39 37v11q9 39 35 39zM490 513q0 -23 18 -23h5q18 3 18 18v5
q-3 18 -18 18h-5q-18 -3 -18 -18zM37 486v-4h2v4h-2z" />
    <glyph glyph-name="uniF001" unicode="&#xf001;" horiz-adv-x="1073" 
 />
    <glyph glyph-name="uniF001" unicode="&#xfb01;" horiz-adv-x="1073" 
 />
    <glyph glyph-name="uniF002" unicode="&#xf002;" horiz-adv-x="1081" 
 />
    <glyph glyph-name="uniF002" unicode="&#xfb02;" horiz-adv-x="1081" 
 />
  </font>
</defs>
</svg>
